<svg xmlns="http://www.w3.org/2000/svg" xmlns:xlink="http://www.w3.org/1999/xlink" enable-background="new 0 0 1920 1080" viewBox="0 0 1920 1080"><rect width="1920" height="1080" fill="#cffff2" class="colorcffff2 svgShape"/><polygon points="0 167.894 509.162 530.447 509.162 207.724 67.61 2.401 0 2.401" opacity=".08" fill="#000000" class="color000 svgShape"/><polygon fill="#9cdbca" points="509.165 570.784 465.015 589.774 458.035 592.774 387.496 623.114 380.515 626.114 282.306 668.354 275.335 671.354 246.705 683.664 0 789.772 0 1080 1919.996 1080 1919.996 789.774 1673.676 683.834 1644.665 671.354 1637.686 668.354 1539.475 626.114 1532.506 623.114 1461.965 592.774 1454.986 589.774 1410.835 570.784" class="color9cdbca svgShape"/><path fill="#b9ebde" d="M503.906,837.153h301.779l-57.48,175.401H331.466L503.906,837.153z M808.845,837.153h302.31l57.481,175.401    h-417.27L808.845,837.153z M1114.316,837.153h301.78l172.44,175.401h-416.75L1114.316,837.153z M364.546,736.254h234.349     l-96.249,97.9H204.125L364.546,736.254z M603.105,736.254h235.651l-32.081,97.9H506.856L603.105,736.254z M841.916,736.254     h236.17l32.09,97.9H809.825L841.916,736.254z M1081.246,736.254h235.649l96.251,97.9h-299.82L1081.246,736.254z      M1321.106,736.254h234.35l160.42,97.9h-298.521L1321.106,736.254z M470.876,671.354h191.82l-60.851,61.9h-232.39     L470.876,671.354z M666.896,671.354h193.12l-20.28,61.9h-233.68L666.896,671.354z M863.176,671.354h193.65l20.28,61.9h-234.21     L863.176,671.354z M1059.976,671.354h193.129l60.841,61.9h-233.68L1059.976,671.354z M1257.305,671.354h191.821l101.42,61.9     h-232.391L1257.305,671.354z M544.996,626.114h162.169l-41.52,42.24H475.786L544.996,626.114z M711.376,626.114h163.47     l-13.84,42.24h-191.16L711.376,626.114z M878.006,626.114h163.99l13.84,42.24h-191.68L878.006,626.114z M1045.156,626.114h163.47     l41.53,42.24h-191.16L1045.156,626.114z M1212.836,626.114h162.17l69.21,42.24h-189.861L1212.836,626.114z M599.626,592.774     h140.32l-29.831,30.34h-160.2L599.626,592.774z M744.156,592.774h141.62l-9.95,30.34h-161.5L744.156,592.774z M888.926,592.774     h142.15l9.94,30.34h-162.03L888.926,592.774z M1034.226,592.774h141.62l29.83,30.34h-161.501L1034.226,592.774z      M1180.056,592.774h140.31l49.72,30.34h-160.201L1180.056,592.774z M1284.336,570.784l31.119,18.99h-138.349l-18.67-18.99h-4.21     l18.669,18.99h-139.649l-6.22-18.99h-3.16l6.22,18.99h-140.17l6.219-18.99h-3.159l-6.22,18.99H747.105l18.671-18.99h-4.21     l-18.671,18.99H604.546l31.12-18.99h-5.76l-31.121,18.99H465.016l-6.981,3h135.841l-49.721,30.34H387.496l-6.98,3h158.72     l-69.21,42.24h-187.72l-6.971,3h189.781l-101.421,61.9H132.966l113.739-49.59L0,789.772v1.45l126.086-54.968h232.7l-160.421,97.9     H0v2.999h193.456L0,955.221v3.52l199.216-121.588h300.48l-172.431,175.401H0v3h324.315L260.96,1080h4.2l63.355-64.446h418.711     L726.107,1080h3.16l21.119-64.446h419.23l21.119,64.446h3.16l-21.119-64.446h418.699l63.358,64.446h4.209l-63.356-64.446h324.31     v-3h-327.261l-172.43-175.401h300.481l199.21,121.58v-3.509l-193.45-118.071h193.45v-2.999h-198.37l-160.41-97.9h232.7     l126.08,54.96v-1.44l-246.32-105.94l113.36,49.42h-230.74l-101.41-61.9h189.779l-6.979-3h-187.71l-69.22-42.24h158.719l-6.969-3     h-156.661l-49.719-30.34h135.839l-6.979-3h-133.77l-31.12-18.99H1284.336z" class="colorb9ebde svgShape"/><polygon points="416.319 610.617 1920 932.319 1920 789.778 1410.838 570.787 509.162 570.787" opacity=".13" fill="#000000" class="color000 svgShape"/><rect width="1920" height="1080" fill="none"/><rect width="901.676" height="363.064" x="509.162" y="207.723" fill="#b8f0e1" class="colorb8f0e1 svgShape"/><polygon points="509.162 270.08 1410.838 555.979 1410.838 207.724 509.162 207.724" opacity=".08" fill="#000000" class="color000 svgShape"/><polygon fill="#ffbf80" points="62.446 .004 224.046 75.144 364.236 140.334 439.236 175.203 439.256 175.214 509.165 207.724 1410.616 207.724 1479.976 175.473 1479.996 175.464 1555.536 140.334 1695.736 75.144 1857.327 .004" class="colorffbf80 svgShape"/><polygon fill="#ffcb99" points="295.655 .004 438.445 75.144 587.455 75.144 485.465 .004" class="colorffcb99 svgShape"/><polygon fill="#ffcb99" points="62.446 .004 224.046 75.144 289.426 75.144 105.836 .004" class="colorffcb99 svgShape"/><polygon fill="#ffcb99" points="730.468 180.494 638.655 180.494 562.326 140.329 675.947 140.329" class="colorffcb99 svgShape"/><polygon fill="#ffcb99" points="546.846 180.493 455.026 180.493 439.256 175.213 439.236 175.203 364.236 140.333 448.706 140.333" class="colorffcb99 svgShape"/><polygon fill="#ffcb99" points="789.568 140.329 675.947 140.329 587.457 75.14 736.474 75.14" class="colorffcb99 svgShape"/><polygon fill="#ffcb99" points="562.326 140.329 448.705 140.329 289.424 75.14 438.441 75.14" class="colorffcb99 svgShape"/><polygon fill="#ffcb99" points="844.457 207.723 767.43 207.723 730.467 180.494 822.28 180.494" class="colorffcb99 svgShape"/><polygon fill="#ffcb99" points="690.401 207.723 613.373 207.723 546.841 180.494 638.654 180.494" class="colorffcb99 svgShape"/><polygon fill="#ffcb99" points="914.094 180.494 822.281 180.494 789.569 140.329 903.19 140.329" class="colorffcb99 svgShape"/><polygon fill="#ffcb99" points="998.514 207.723 921.486 207.723 914.094 180.494 1005.906 180.494" class="colorffcb99 svgShape"/><polygon fill="#ffcb99" points="675.285 .004 736.475 75.144 885.495 75.144 865.095 .004" class="colorffcb99 svgShape"/><polygon fill="#ffcb99" points="1016.81 140.329 903.189 140.329 885.491 75.14 1034.508 75.14" class="colorffcb99 svgShape"/><polygon fill="#ffcb99" points="1097.719 180.494 1005.906 180.494 1016.81 140.329 1130.431 140.329" class="colorffcb99 svgShape"/><polygon fill="#ffcb99" points="1152.571 207.723 1075.543 207.723 1097.719 180.494 1189.532 180.494" class="colorffcb99 svgShape"/><polygon fill="#ffcb99" points="1054.905 .004 1034.506 75.144 1183.526 75.144 1244.716 .004" class="colorffcb99 svgShape"/><polygon fill="#ffcb99" points="1244.053 140.329 1130.432 140.329 1183.526 75.14 1332.542 75.14" class="colorffcb99 svgShape"/><polygon fill="#ffcb99" points="1471.295 140.329 1357.674 140.329 1481.559 75.14 1630.576 75.14" class="colorffcb99 svgShape"/><polygon fill="#ffcb99" points="1281.345 180.494 1189.532 180.494 1244.053 140.329 1357.674 140.329" class="colorffcb99 svgShape"/><polygon fill="#ffcb99" points="1555.536 140.333 1479.996 175.463 1479.976 175.473 1464.976 180.493 1373.156 180.493 1471.296 140.333" class="colorffcb99 svgShape"/><polygon fill="#ffcb99" points="1434.535 .004 1332.546 75.144 1481.556 75.144 1624.346 .004" class="colorffcb99 svgShape"/><polygon fill="#ffcb99" points="1814.166 .004 1630.576 75.144 1695.736 75.144 1857.326 .004" class="colorffcb99 svgShape"/><polygon fill="#ffcb99" points="1306.627 207.723 1229.599 207.723 1281.345 180.494 1373.158 180.494" class="colorffcb99 svgShape"/><polygon fill="#c78d54" points="366.693 266.787 435.987 291.154 435.987 353.596 366.693 349.408" class="colorc78d54 svgShape"/><polygon points="1410.838 555.979 1920 234.323 1920 0 1857.328 0 1410.838 207.724" opacity=".09" fill="#000000" class="color000 svgShape"/><polygon fill="#a4d6c9" points="1920 60.92 1920 707.9 1446.53 517.07 1446.53 265.99" class="colora4d6c9 svgShape"/><polygon fill="#c78d54" points="1466.447 505.508 1476.915 501.242 1476.915 281.753 1466.447 273.811" class="colorc78d54 svgShape"/><polygon fill="#ffbf80" points="1476.915 501.242 1677.085 562.604 1677.085 578.348 1466.447 505.508" class="colorffbf80 svgShape"/><polygon fill="#ffbf80" points="1476.915 281.753 1677.085 208.902 1677.085 186.178 1466.447 273.811" class="colorffbf80 svgShape"/><polygon fill="#d9fff5" points="1677.09 208.9 1677.09 562.6 1587.2 535.05 1499.29 508.1 1497.77 507.63 1476.92 501.24 1476.92 281.75 1512.19 268.92 1530.18 262.37 1595.03 238.76 1609.97 233.33 1625.04 227.84 1646.01 220.21 1651.06 218.37 1672.56 210.55" class="colord9fff5 svgShape"/><rect width="6.638" height="392.17" x="1677.085" y="186.178" fill="#c78d54" class="colorc78d54 svgShape"/><g opacity=".54" fill="#000000" class="color000 svgShape"><polygon fill="#f7fffd" points="1677.09 208.9 1677.09 241.56 1476.92 492.63 1476.92 436.8 1651.06 218.37 1672.56 210.55" class="colorf7fffd svgShape"/><polygon fill="#f7fffd" points="1677.09 282.72 1677.09 422.3 1587.2 535.05 1499.29 508.1 1497.77 507.63" class="colorf7fffd svgShape"/><polygon fill="#f7fffd" points="1625.04 227.84 1476.92 413.65 1476.92 313.15 1512.19 268.92 1530.18 262.37 1595.03 238.76 1609.97 233.33" class="colorf7fffd svgShape"/></g><polygon fill="#ffbf80" points="1677.085 186.178 1668.037 189.943 1668.037 575.522 1677.085 578.348" class="colorffbf80 svgShape"/><polygon fill="#ffbf80" points="1466.447 358.859 1668.037 355.455 1668.037 370.519 1466.447 364.986" class="colorffbf80 svgShape"/><polygon fill="#c78d54" points="1697.368 586.429 1715.586 579.005 1715.586 197.02 1697.368 183.2" class="colorc78d54 svgShape"/><polygon fill="#ffbf80" points="1697.369 183.199 1715.586 197.02 1920 122.625 1920 90.577" class="colorffbf80 svgShape"/><polygon fill="#d9fff5" points="1920 122.62 1920 641.67 1754.52 590.95 1715.59 579.01 1715.59 197.02 1808.28 163.3" class="colord9fff5 svgShape"/><g opacity=".54" fill="#000000" class="color000 svgShape"><polygon fill="#f7fffd" points="1920 146.8 1920 202.63 1796.5 357.55 1784.75 372.28 1715.59 459.03 1715.59 403.2 1741.2 371.08 1751.38 358.31" class="colorf7fffd svgShape"/><polygon fill="#f7fffd" points="1920 243.8 1920 383.38 1754.52 590.95 1715.59 579.01 1715.59 500.19 1816.87 373.16 1829.76 356.98" class="colorf7fffd svgShape"/><polygon fill="#f7fffd" points="1808.278 163.296 1715.588 279.55 1715.588 380.055 1921.138 122.207" class="colorf7fffd svgShape"/></g><polygon fill="#ffbf80" points="1920 355.46 1920 375.99 1816.87 373.16 1784.75 372.28 1741.2 371.08 1723.13 370.59 1715.59 370.38 1697.37 369.88 1697.37 359.22 1715.59 358.91 1732.67 358.62 1751.38 358.31 1796.5 357.55 1829.76 356.98" class="colorffbf80 svgShape"/><polygon fill="#ffbf80" points="1697.369 586.428 1920 663.415 1920 641.666 1715.586 579.004" class="colorffbf80 svgShape"/><polygon points="460.236 255.983 460.236 591.833 449.336 596.523 347.386 640.373 347.386 203.733" opacity=".08" fill="#000000" class="color000 svgShape"/><g fill="#000000" class="color000 svgShape"><polygon fill="#ffbf80" points="449.336 262.783 449.336 596.523 347.386 640.373 347.386 215.583" class="colorffbf80 svgShape"/><polygon fill="#c78d54" points="366.693 266.787 435.987 291.154 435.987 353.596 366.693 349.408" class="colorc78d54 svgShape"/><polygon fill="#ffffff" points="372.001 274.234 431.445 295.137 431.445 348.702 372.001 345.109" class="colorfff svgShape"/><path fill="#75471a" d="M442.702,427.978c0,4.794-2.296,8.681-5.129,8.681s-5.129-3.887-5.129-8.681     c0-4.794,2.296-8.681,5.129-8.681S442.702,423.184,442.702,427.978L442.702,427.978z" class="color75471a svgShape"/><polygon points="347.386 215.583 347.386 284.589 449.336 555.979 449.336 262.783" opacity=".08" fill="#000000" class="color000 svgShape"/></g><g fill="#000000" class="color000 svgShape"><polygon fill="#75471a" points="1071.438 909.39 1080.857 909.39 1081.488 634.206 1062.552 634.206" class="color75471a svgShape"/><polygon fill="#75471a" points="848.009 909.39 838.59 909.39 837.959 634.206 856.895 634.206" class="color75471a svgShape"/><polygon fill="#ffbf80" points="1171.648 705.305 748.352 705.305 835.08 626.114 1084.92 626.114" class="colorffbf80 svgShape"/><polygon fill="#c78d54" points="1171.941 719.02 748.059 719.02 748.352 705.305 1171.648 705.305" class="colorc78d54 svgShape"/><polygon fill="#c78d54" points="766.149 999.037 756.646 999.037 757.3 719.02 776.399 719.02" class="colorc78d54 svgShape"/><polygon fill="#c78d54" points="1153.851 999.037 1163.353 999.037 1162.7 719.02 1143.6 719.02" class="colorc78d54 svgShape"/><polygon fill="#75471a" points="836.929 883.978 813.945 1080 822.963 1080 858.225 883.978" class="color75471a svgShape"/><polygon fill="#75471a" points="1061.552 883.978 1096.81 1080 1105.828 1080 1082.849 883.978" class="color75471a svgShape"/><polygon fill="#c78d54" points="1087.586 832.96 832.415 832.96 824.19 738.567 1095.811 738.567" class="colorc78d54 svgShape"/><polygon fill="#ffbf80" points="1095.705 730.781 824.296 730.781 824.19 738.567 1095.811 738.567" class="colorffbf80 svgShape"/><polygon fill="#c78d54" points="1074.298 955.25 845.478 955.25 828.741 875.874 1091.036 875.874" class="colorc78d54 svgShape"/><polygon fill="#75471a" points="1074.474 970.904 845.301 970.904 845.477 955.25 1074.298 955.25" class="color75471a svgShape"/><polygon fill="#75471a" points="828.741 875.874 828.562 889.659 845.301 970.904 845.477 955.25" class="color75471a svgShape"/><polygon fill="#75471a" points="1091.036 875.874 1091.215 889.659 1074.474 970.904 1074.298 955.25" class="color75471a svgShape"/><polygon fill="#75471a" points="858.941 761.186 856.894 963.071 843.519 1080 857.717 1080 878.357 963.071 879.978 761.186" class="color75471a svgShape"/><polygon fill="#75471a" points="1039.802 761.186 1041.418 963.071 1062.055 1080 1076.253 1080 1062.881 963.071 1060.837 761.186" class="color75471a svgShape"/><polygon fill="#c78d54" points="733.349 915.406 723.923 915.406 726.834 639.9 745.78 639.9" class="colorc78d54 svgShape"/><polygon fill="#c78d54" points="375.958 915.406 385.383 915.406 407.291 639.9 388.345 639.9" class="colorc78d54 svgShape"/><polygon fill="#ffbf80" points="270.346 705.305 651.05 705.305 766.045 626.114 388.385 626.114" class="colorffbf80 svgShape"/><polygon fill="#75471a" points="650.62 719.02 269.391 719.02 270.346 705.305 651.048 705.305" class="color75471a svgShape"/><polygon fill="#c78d54" points="650.62 719.02 651.048 705.305 766.238 626.113 765.852 640.987" class="colorc78d54 svgShape"/><polygon fill="#c78d54" points="626.064 999.037 616.562 999.037 621.061 719.02 640.161 719.02" class="colorc78d54 svgShape"/><polygon fill="#c78d54" points="265.719 999.037 275.221 999.037 298.95 719.02 279.851 719.02" class="colorc78d54 svgShape"/><polygon fill="#ffbf80" points="317.677 826.362 572.116 826.362 575.762 732.092 323.716 732.092" class="colorffbf80 svgShape"/><polygon fill="#c78d54" points="310.422 832.96 565.028 832.96 568.744 738.567 316.533 738.567" class="colorc78d54 svgShape"/><polygon fill="#75471a" points="555.585 899.921 578.904 1080 588.973 1080 576.915 899.921" class="color75471a svgShape"/><polygon fill="#75471a" points="350.973 899.921 321.228 1080 331.296 1080 372.303 899.921" class="color75471a svgShape"/><polygon fill="#c78d54" points="295.032 970.904 535.266 970.904 588.73 891.284 350.377 891.284" class="colorc78d54 svgShape"/><polygon fill="#75471a" points="294.005 986.606 534.61 986.606 535.266 970.904 295.031 970.904" class="color75471a svgShape"/><polygon fill="#ffbf80" points="534.61 986.606 535.266 970.904 588.73 891.284 588.05 909.762" class="colorffbf80 svgShape"/><polygon fill="#75471a" points="492.495 769.901 482.586 981.229 500.001 1080 514.827 1080 503.638 981.229 513.11 769.901" class="color75471a svgShape"/><polygon fill="#75471a" points="338.721 769.901 325.553 981.229 303.783 1080 318.595 1080 346.605 981.229 359.336 769.901" class="color75471a svgShape"/><polygon fill="#c78d54" points="1186.651 915.406 1196.076 915.406 1193.166 639.9 1174.219 639.9" class="colorc78d54 svgShape"/><polygon fill="#c78d54" points="1544.042 915.406 1534.617 915.406 1512.709 639.9 1531.655 639.9" class="colorc78d54 svgShape"/><polygon fill="#ffbf80" points="1649.654 705.305 1268.95 705.305 1153.955 626.114 1531.615 626.114" class="colorffbf80 svgShape"/><polygon fill="#75471a" points="1269.38 719.02 1650.609 719.02 1649.654 705.305 1268.952 705.305" class="color75471a svgShape"/><polygon fill="#c78d54" points="1269.38 719.02 1268.952 705.305 1153.762 626.113 1154.149 640.987" class="colorc78d54 svgShape"/><polygon fill="#c78d54" points="1293.936 999.037 1303.439 999.037 1298.939 719.02 1279.84 719.02" class="colorc78d54 svgShape"/><polygon fill="#c78d54" points="1654.281 999.037 1644.779 999.037 1621.05 719.02 1640.149 719.02" class="colorc78d54 svgShape"/><g fill="#000000" class="color000 svgShape"><polygon fill="#ffbf80" points="1602.323 826.362 1347.885 826.362 1344.238 732.092 1596.284 732.092" class="colorffbf80 svgShape"/><polygon fill="#c78d54" points="1609.578 832.96 1354.972 832.96 1351.256 738.567 1603.467 738.567" class="colorc78d54 svgShape"/><polygon fill="#75471a" points="1343.085 899.921 1331.027 1080 1341.096 1080 1364.414 899.921" class="color75471a svgShape"/><polygon fill="#75471a" points="1547.698 899.921 1588.704 1080 1598.773 1080 1569.027 899.921" class="color75471a svgShape"/><polygon fill="#c78d54" points="1624.968 970.904 1384.734 970.904 1331.27 891.284 1569.623 891.284" class="colorc78d54 svgShape"/><polygon fill="#75471a" points="1625.995 986.606 1385.39 986.606 1384.735 970.904 1624.969 970.904" class="color75471a svgShape"/><polygon fill="#ffbf80" points="1385.39 986.606 1384.735 970.904 1331.27 891.284 1331.95 909.762" class="colorffbf80 svgShape"/><polygon fill="#75471a" points="1406.89 769.901 1416.362 981.229 1405.173 1080 1419.999 1080 1437.413 981.229 1427.505 769.901" class="color75471a svgShape"/><polygon fill="#75471a" points="1560.664 769.901 1573.395 981.229 1601.406 1080 1616.217 1080 1594.446 981.229 1581.279 769.901" class="color75471a svgShape"/></g><g fill="#000000" class="color000 svgShape"><polygon fill="#75471a" points="1124.175 802.827 1133.126 1080 1153.854 1080 1154.49 802.827" class="color75471a svgShape"/><polygon fill="#75471a" points="764.624 802.827 765.26 1080 785.989 1080 794.939 802.827" class="color75471a svgShape"/><polygon fill="#ffbf80" points="1298.827 916.647 621.173 916.647 760.015 789.87 1159.985 789.87" class="colorffbf80 svgShape"/><polygon fill="#c78d54" points="1299.296 938.604 620.703 938.604 621.172 916.647 1298.827 916.647" class="colorc78d54 svgShape"/><polygon fill="#c78d54" points="635.498 938.605 635.168 1080 660.898 1080 666.075 938.605" class="colorc78d54 svgShape"/><polygon fill="#c78d54" points="1253.925 938.605 1259.101 1080 1284.832 1080 1284.502 938.605" class="colorc78d54 svgShape"/></g><g fill="#000000" class="color000 svgShape"><polygon fill="#c78d54" points="742.58 969.897 752.174 1080 1167.825 1080 1177.419 969.897" class="colorc78d54 svgShape"/><polygon fill="#ffbf80" points="1177.249 957.431 742.751 957.431 742.581 969.896 1177.419 969.896" class="colorffbf80 svgShape"/><polygon fill="#75471a" points="798.215 1006.107 797.465 1080 831.299 1080 831.893 1006.107" class="color75471a svgShape"/><polygon fill="#75471a" points="1087.754 1006.107 1088.346 1080 1122.18 1080 1121.432 1006.107" class="color75471a svgShape"/></g><g fill="#000000" class="color000 svgShape"><polygon fill="#c78d54" points="586.724 811.94 583.893 1080 604.96 1080 617.056 811.94" class="colorc78d54 svgShape"/><polygon fill="#c78d54" points="44.837 811.94 32.785 1080 53.853 1080 75.17 811.94" class="colorc78d54 svgShape"/><polygon fill="#ffbf80" points="44.901 789.87 0 819.994 0 916.648 465.402 916.648 649.498 789.87" class="colorffbf80 svgShape"/><polygon fill="#75471a" points="0 916.647 0 938.604 464.714 938.604 465.399 916.647" class="color75471a svgShape"/><polygon fill="#c78d54" points="464.714 938.604 465.399 916.647 649.807 789.87 649.189 813.681" class="colorc78d54 svgShape"/><polygon fill="#c78d54" points="417.393 938.605 415.121 1080 440.851 1080 447.97 938.605" class="colorc78d54 svgShape"/></g><g fill="#000000" class="color000 svgShape"><polygon fill="#ffbf80" points="0 959.532 0 1080 340.214 1080 344.874 959.532" class="colorffbf80 svgShape"/><polygon fill="#c78d54" points="0 969.897 0 1080 329.304 1080 333.639 969.897" class="colorc78d54 svgShape"/><polygon fill="#75471a" points="211.572 1020.058 208.761 1080 241.888 1080 244.574 1020.058" class="color75471a svgShape"/></g><g fill="#000000" class="color000 svgShape"><polygon fill="#c78d54" points="1302.943 811.94 1315.039 1080 1336.106 1080 1333.275 811.94" class="colorc78d54 svgShape"/><polygon fill="#c78d54" points="1844.83 811.94 1866.147 1080 1887.214 1080 1875.162 811.94" class="colorc78d54 svgShape"/><polygon fill="#ffbf80" points="1270.502 789.87 1454.599 916.648 1920 916.648 1920 819.994 1875.099 789.87" class="colorffbf80 svgShape"/><polygon fill="#75471a" points="1454.602 916.647 1455.286 938.604 1920 938.604 1920 916.647" class="color75471a svgShape"/><polygon fill="#c78d54" points="1455.286 938.604 1454.601 916.647 1270.193 789.87 1270.812 813.681" class="colorc78d54 svgShape"/><polygon fill="#c78d54" points="1472.031 938.605 1479.149 1080 1504.879 1080 1502.607 938.605" class="colorc78d54 svgShape"/></g><g fill="#000000" class="color000 svgShape"><polygon fill="#ffbf80" points="1575.126 959.532 1579.786 1080 1920 1080 1920 959.532" class="colorffbf80 svgShape"/><polygon fill="#c78d54" points="1586.362 969.897 1590.696 1080 1920 1080 1920 969.897" class="colorc78d54 svgShape"/><polygon fill="#75471a" points="1675.426 1020.058 1678.112 1080 1711.239 1080 1708.427 1020.058" class="color75471a svgShape"/></g><g fill="#000000" class="color000 svgShape"><rect width="493.574" height="209.331" x="713.213" y="297.222" fill="#75471a" class="color75471a svgShape"/><rect width="473.83" height="193.854" x="723.085" y="304.96" fill="#b1c284" class="colorb1c284 svgShape"/><polygon points="723.085 304.96 723.085 367.419 1130.191 498.814 1196.915 498.814 1196.915 304.96" opacity=".08" fill="#000000" class="color000 svgShape"/></g><g fill="#000000" class="color000 svgShape"><path d="M1005.2,256.383c0,21.527-17.451,38.979-38.979,38.979c-21.527,0-38.979-17.452-38.979-38.979     c0-21.527,17.452-38.979,38.979-38.979C987.749,217.404,1005.2,234.856,1005.2,256.383L1005.2,256.383z" opacity=".15" fill="#000000" class="color000 svgShape"/><path fill="#ffbf80" d="M1002.936,252.978c0,21.527-17.451,38.979-38.979,38.979c-21.527,0-38.979-17.452-38.979-38.979     s17.452-38.979,38.979-38.979C985.485,213.999,1002.936,231.451,1002.936,252.978L1002.936,252.978z" class="colorffbf80 svgShape"/><path fill="#75471a" d="M998.825,252.978c0,19.257-15.611,34.868-34.868,34.868c-19.257,0-34.867-15.611-34.867-34.868     s15.61-34.868,34.867-34.868C983.214,218.11,998.825,233.721,998.825,252.978L998.825,252.978z" class="color75471a svgShape"/><path d="M963.957,218.11c-0.664,0-1.323,0.023-1.979,0.059c18.336,1.026,32.889,16.216,32.889,34.809     s-14.553,33.782-32.889,34.809c0.655,0.037,1.314,0.059,1.979,0.059c19.257,0,34.868-15.611,34.868-34.868     S983.214,218.11,963.957,218.11z" opacity=".15" fill="#000000" class="color000 svgShape"/><path fill="#ffffff" d="M982.782,259.199l-14.907-6.66c-0.22-1.969-1.865-3.505-3.889-3.52l-11.776-20.48     c-0.549-0.957-1.771-1.288-2.73-0.737c-0.957,0.551-1.287,1.773-0.737,2.731l11.786,20.494c-0.33,0.578-0.533,1.238-0.533,1.951     c0,2.188,1.774,3.962,3.962,3.962c0.859,0,1.648-0.28,2.297-0.745l14.895,6.657c0.265,0.118,0.543,0.174,0.815,0.174     c0.765,0,1.495-0.441,1.827-1.185C984.242,260.833,983.79,259.65,982.782,259.199z" class="colorfff svgShape"/></g><g fill="#000000" class="color000 svgShape"><rect width="105.036" height="110.213" x="563.36" y="314.132" fill="#ffffff" class="colorfff svgShape"/><rect width="105.036" height="18.862" x="563.36" y="295.269" fill="#ffa952" class="colorffa952 svgShape"/><rect width="9.128" height="9.128" x="573.716" y="339.71" fill="#ffbf80" class="colorffbf80 svgShape"/><rect width="9.128" height="9.128" x="592.515" y="339.71" fill="#ffbf80" class="colorffbf80 svgShape"/><rect width="9.128" height="9.128" x="611.314" y="339.71" fill="#ffbf80" class="colorffbf80 svgShape"/><rect width="9.128" height="9.128" x="630.114" y="339.71" fill="#ffbf80" class="colorffbf80 svgShape"/><rect width="9.128" height="9.128" x="648.913" y="339.71" fill="#ffbf80" class="colorffbf80 svgShape"/><rect width="9.128" height="9.128" x="573.716" y="352.654" fill="#ffbf80" class="colorffbf80 svgShape"/><rect width="9.128" height="9.128" x="592.515" y="352.654" fill="#ffbf80" class="colorffbf80 svgShape"/><rect width="9.128" height="9.128" x="611.314" y="352.654" fill="#ffbf80" class="colorffbf80 svgShape"/><rect width="9.128" height="9.128" x="630.114" y="352.654" fill="#ffbf80" class="colorffbf80 svgShape"/><rect width="9.128" height="9.128" x="648.913" y="352.654" fill="#ffbf80" class="colorffbf80 svgShape"/><rect width="9.128" height="9.128" x="573.716" y="365.599" fill="#ffbf80" class="colorffbf80 svgShape"/><rect width="9.128" height="9.128" x="592.515" y="365.599" fill="#ffbf80" class="colorffbf80 svgShape"/><rect width="9.128" height="9.128" x="611.314" y="365.599" fill="#ffbf80" class="colorffbf80 svgShape"/><rect width="9.128" height="9.128" x="630.114" y="365.599" fill="#ffbf80" class="colorffbf80 svgShape"/><rect width="9.128" height="9.128" x="648.913" y="365.599" fill="#ffbf80" class="colorffbf80 svgShape"/><rect width="9.128" height="9.128" x="573.716" y="378.544" fill="#ffbf80" class="colorffbf80 svgShape"/><rect width="9.128" height="9.128" x="592.515" y="378.544" fill="#ffbf80" class="colorffbf80 svgShape"/><rect width="9.128" height="9.128" x="611.314" y="378.544" fill="#ffbf80" class="colorffbf80 svgShape"/><rect width="9.128" height="9.128" x="630.114" y="378.544" fill="#ffbf80" class="colorffbf80 svgShape"/><rect width="9.128" height="9.128" x="648.913" y="378.544" fill="#ffbf80" class="colorffbf80 svgShape"/><rect width="9.128" height="9.128" x="573.716" y="391.488" fill="#ffbf80" class="colorffbf80 svgShape"/><rect width="9.128" height="9.128" x="592.515" y="391.488" fill="#ffbf80" class="colorffbf80 svgShape"/><rect width="9.128" height="9.128" x="611.314" y="391.488" fill="#ffbf80" class="colorffbf80 svgShape"/><rect width="9.128" height="9.128" x="630.114" y="391.488" fill="#ffbf80" class="colorffbf80 svgShape"/><rect width="9.128" height="9.128" x="648.913" y="391.488" fill="#ffbf80" class="colorffbf80 svgShape"/><rect width="9.128" height="9.127" x="573.716" y="404.433" fill="#ffbf80" class="colorffbf80 svgShape"/><rect width="9.128" height="9.127" x="592.515" y="404.433" fill="#ffbf80" class="colorffbf80 svgShape"/><rect width="9.128" height="9.127" x="611.314" y="404.433" fill="#ffbf80" class="colorffbf80 svgShape"/><rect width="9.128" height="9.127" x="630.114" y="404.433" fill="#ffbf80" class="colorffbf80 svgShape"/><rect width="9.128" height="9.127" x="648.913" y="404.433" fill="#ffbf80" class="colorffbf80 svgShape"/><rect width="84.324" height="6.103" x="573.717" y="325.411" fill="#ffbf80" class="colorffbf80 svgShape"/></g><g fill="#000000" class="color000 svgShape"><rect width="161.808" height="205.523" x="1240.301" y="366.787" fill="#c78d54" class="colorc78d54 svgShape"/><rect width="152.674" height="37.842" x="1244.868" y="371.028" fill="#ffbf80" class="colorffbf80 svgShape"/><rect width="39.147" height="3.262" x="1301.632" y="388.318" fill="#c78d54" class="colorc78d54 svgShape"/><rect width="152.674" height="37.842" x="1244.868" y="411.481" fill="#ffbf80" class="colorffbf80 svgShape"/><rect width="39.147" height="3.262" x="1301.632" y="428.77" fill="#c78d54" class="colorc78d54 svgShape"/><rect width="75.032" height="92.322" x="1244.868" y="451.933" fill="#ffbf80" class="colorffbf80 svgShape"/><rect width="3.565" height="34.58" x="1306.66" y="480.804" fill="#c78d54" class="colorc78d54 svgShape"/><rect width="74.828" height="92.322" x="1322.714" y="451.933" fill="#ffbf80" class="colorffbf80 svgShape"/><rect width="3.555" height="34.58" x="1332.364" y="480.804" fill="#c78d54" class="colorc78d54 svgShape"/><rect width="25.336" height="205.523" x="1214.965" y="366.787" fill="#75471a" class="color75471a svgShape"/><polygon points="1214.87 404.491 1240.206 408.871 1402.015 494.239 1402.015 366.788 1214.87 366.788" opacity=".08" fill="#000000" class="color000 svgShape"/></g><g fill="#000000" class="color000 svgShape"><polygon fill="#75471a" points="721.035 510.765 721.035 604.489 717.209 604.489 707.646 510.765" class="color75471a svgShape"/><polygon fill="#75471a" points="533.587 510.765 533.587 604.489 537.413 604.489 546.976 510.765" class="color75471a svgShape"/><polygon fill="#c78d54" points="741.596 510.765 741.596 604.489 737.771 604.489 728.207 510.765" class="colorc78d54 svgShape"/><polygon fill="#c78d54" points="554.149 510.765 554.149 604.489 557.974 604.489 567.538 510.765" class="colorc78d54 svgShape"/><rect width="187.447" height="72.684" x="554.149" y="463.585" fill="#c78d54" class="colorc78d54 svgShape"/><rect width="20.562" height="72.684" x="533.587" y="463.585" fill="#75471a" class="color75471a svgShape"/><rect width="25.344" height="9.563" x="528.805" y="454.022" fill="#c78d54" class="colorc78d54 svgShape"/><rect width="201.793" height="9.563" x="546.976" y="454.022" fill="#ffbf80" class="colorffbf80 svgShape"/><polygon points="533.587 468.681 554.149 475.319 741.596 504.426 741.596 463.585 533.587 463.585" opacity=".08" fill="#000000" class="color000 svgShape"/></g><g fill="#000000" class="color000 svgShape"><rect width="136.753" height="17.192" x="120.415" y="305.638" fill="#75471a" class="color75471a svgShape"/><rect width="73.532" height="17.192" x="51.904" y="305.638" fill="#c78d54" class="colorc78d54 svgShape"/><polygon fill="#c78d54" points="63.393 322.83 63.393 376.447 75.648 376.447 107.563 322.83" class="colorc78d54 svgShape"/><polygon fill="#75471a" points="198.967 322.83 198.967 376.447 211.222 376.447 243.137 322.83" class="color75471a svgShape"/></g><g fill="#000000" class="color000 svgShape"><path fill="#b1c284" d="M166.959,168.977c5.94-7.407,7.456-18.111,3.806-26.876c-1.375-3.3-3.488-6.382-6.465-8.36     c-2.978-1.977-6.895-2.716-10.217-1.398c-5.788,2.296-7.748,9.442-8.276,15.645c-0.529,6.204-0.66,13.108-4.992,17.581     c-4.797,4.953-13.223,5.139-17.628,10.444c-4.222,5.085-3.015,12.595-1.484,19.024c1.532,6.428,2.986,13.818-0.924,19.145     c-3.82,5.203-11.183,6.191-16.304,10.12c-3.851,2.955-6.306,7.656-6.53,12.505c-0.223,4.849,1.788,9.756,5.351,13.054     l33.59-2.839c-5.905-8.339-4.564-20.989,2.957-27.904c4.535-4.17,10.632-6.169,15.7-9.67c5.069-3.501,9.301-9.804,7.147-15.576     c-1.12-3-3.789-5.291-4.594-8.39c-0.821-3.157,0.49-6.517,2.405-9.158C162.416,173.683,164.917,171.522,166.959,168.977     L166.959,168.977z" class="colorb1c284 svgShape"/><path fill="#b1c284" d="M123.142,234.723c0.247-3.232,1.67-6.237,2.908-9.233c1.238-2.996,2.329-6.214,1.863-9.423     c-0.396-2.731-1.967-5.272-4.233-6.848c-3.849-2.677-8.927-2.372-13.589-2.865c-4.662-0.494-9.997-2.694-10.884-7.298     c-0.904-4.693,3.3-8.657,7.056-11.614c3.755-2.956,7.9-7.037,6.831-11.696c-0.72-3.138-3.636-5.248-6.508-6.704     c-2.872-1.456-6.029-2.643-8.128-5.084c-3.632-4.224-2.863-10.487-2.917-16.057c-0.075-7.738-2.425-15.831-8.153-21.034     c-5.728-5.203-15.289-6.507-21.207-1.521c-5.852,4.931-6.354,14.026-3.744,21.219c2.611,7.193,7.661,13.185,11.687,19.692     c2.436,3.936,4.576,8.44,3.916,13.021c-0.742,5.152-4.776,9.08-8.041,13.134c-3.264,4.055-6.005,9.595-3.763,14.292     c1.877,3.934,6.456,5.618,10.548,7.116c4.093,1.498,8.607,3.688,9.79,7.882c0.841,2.981-0.289,6.142-1.602,8.947     c-1.313,2.806-2.86,5.652-2.891,8.749c-0.03,3.098,2.128,6.49,5.226,6.53l39.7-2.88     C124.132,241.551,122.895,237.955,123.142,234.723L123.142,234.723z" class="colorb1c284 svgShape"/><path fill="#8fa35b" d="M137.256,187.244c-2.288-1.962-5.12-3.162-7.629-4.83c-2.511-1.669-4.832-4.075-5.151-7.072     c-0.286-2.689,1.12-5.308,2.979-7.272c1.859-1.964,4.165-3.437,6.245-5.165c8.831-7.337,13.202-19.665,10.967-30.926     c-1.527-7.695-6.345-15.063-13.608-18.027c-7.263-2.965-16.835-0.366-20.34,6.652c-2.974,5.957-1.197,13.055,0.252,19.554     c1.451,6.498,2.274,14.049-2.023,19.136c-2.742,3.247-6.977,4.716-10.858,6.449c-3.88,1.733-7.903,4.232-9.158,8.293     c-1.239,4.012,0.65,8.372,3.3,11.629s6.056,5.844,8.644,9.151c2.587,3.307,4.313,7.773,2.848,11.708     c-1.864,5.001-7.88,7.043-11.082,11.312c-3.412,4.548-3.067,11.075-0.632,16.212c2.434,5.138,6.619,9.2,10.715,13.142     l23.247-4.664c-5.077-7.044-4.634-17.55,1.019-24.142c3.971-4.631,10.037-7.337,13.213-12.546     C143.757,200.009,142.438,191.688,137.256,187.244L137.256,187.244z" class="color8fa35b svgShape"/><path fill="#ffa952" d="M78.039,241.124v29.523c0,19.326,15.667,34.992,34.991,34.992c19.325,0,34.991-15.666,34.991-34.992     v-29.523H78.039z" class="colorffa952 svgShape"/><defs><rect id="a" width="69.982" height="11.081" x="78.039" y="256.578" fill="#000000" class="color000 svgShape"/></defs><clipPath id="b"><use overflow="visible" xlink:href="#a"/></clipPath><rect width="69.982" height="11.081" x="78.039" y="256.577" fill="#ffa952" clip-path="url(#b)" class="colorffa952 svgShape"/></g><g fill="#000000" class="color000 svgShape"><rect width="136.753" height="17.192" x="120.415" y="464.522" fill="#75471a" class="color75471a svgShape"/><rect width="73.532" height="17.192" x="51.904" y="464.522" fill="#c78d54" class="colorc78d54 svgShape"/><polygon fill="#c78d54" points="63.393 481.714 63.393 535.331 75.648 535.331 107.563 481.714" class="colorc78d54 svgShape"/><polygon fill="#75471a" points="198.967 481.714 198.967 535.331 211.222 535.331 243.137 481.714" class="color75471a svgShape"/><rect width="69.45" height="104.17" x="165.924" y="360.353" fill="#ff6933" class="colorff6933 svgShape"/><polygon points="235.374 360.353 235.374 438.963 165.924 400.613 165.924 360.353" opacity=".15" fill="#000000" class="color000 svgShape"/><rect width="13.617" height="104.17" x="235.37" y="360.352" fill="#d1562a" class="colord1562a svgShape"/><rect width="52.425" height="29.617" x="174.434" y="374.31" fill="#ffc991" class="colorffc991 svgShape"/><rect width="69.45" height="104.17" x="132.733" y="360.353" fill="#fff952" class="colorfff952 svgShape"/><polygon points="202.183 360.353 202.183 438.963 132.733 400.613 132.733 360.353" opacity=".15" fill="#000000" class="color000 svgShape"/><rect width="13.617" height="104.17" x="202.179" y="360.352" fill="#e0db48" class="colore0db48 svgShape"/><rect width="52.425" height="29.617" x="141.243" y="374.31" fill="#ffc991" class="colorffc991 svgShape"/><g fill="#000000" class="color000 svgShape"><rect width="69.45" height="104.17" x="103.714" y="360.353" fill="#ffa952" class="colorffa952 svgShape"/><polygon points="173.164 360.353 173.164 438.963 103.714 400.613 103.714 360.353" opacity=".14" fill="#000000" class="color000 svgShape"/><rect width="13.617" height="104.17" x="173.16" y="360.352" fill="#ff7847" class="colorff7847 svgShape"/><rect width="52.425" height="29.617" x="112.224" y="374.31" fill="#ffc991" class="colorffc991 svgShape"/></g></g></g></svg>