<?xml version="1.0" encoding="utf-8"?>
<svg width="1364" height="960" viewBox="132.482 -34.767 1344.682 940.709" xmlns="http://www.w3.org/2000/svg">
  <defs>
    <linearGradient y2="1.45569" y1="-0.85968" x2="0.49877" x1="0.50175" id="b">
      <stop class="stopColor6187b5 svgShape" stop-color="#6187b5" offset="0"/>
      <stop class="stopColor1e3968 svgShape" stop-color="#1e3968" offset="1"/>
    </linearGradient>
  </defs>
  <g transform="matrix(1, 0, 0, 1, 156.595718, -14.751809)">
    <title>Layer 1</title>
    <path id="svg_1" d="M -31.773 -30.638 L 1332.227 -30.638 L 1332.227 929.362 L -31.773 929.362 L -31.773 -30.638 Z" fill="#7AD6CA"/>
    <path id="svg_2" class="colorE6EDFF svgShape" d="M 723.962 381.322 L 783.607 381.322 L 783.607 399.772 L 723.962 399.772 L 723.962 381.322 Z M 763.42 338.55 L 823.065 338.55 L 823.065 357 L 763.42 357 L 763.42 338.55 Z M 806.192 370.3 L 865.837 370.3 L 865.837 388.75 L 806.192 388.75 L 806.192 370.3 Z M 10.826 52.936 L 70.471 52.936 L 70.471 71.386 L 10.826 71.386 L 10.826 52.936 L 10.826 52.936 Z M 50.284 10.164 L 109.929 10.164 L 109.929 28.614 L 50.284 28.614 L 50.284 10.164 L 50.284 10.164 Z M 93.057 41.914 L 152.702 41.914 L 152.702 60.364 L 93.057 60.364 L 93.057 41.914 Z M 1075.951 177.872 L 1135.596 177.872 L 1135.596 196.322 L 1075.951 196.322 L 1075.951 177.872 Z M 1115.41 135.1 L 1175.055 135.1 L 1175.055 153.55 L 1115.41 153.55 L 1115.41 135.1 Z M 1158.182 166.85 L 1217.827 166.85 L 1217.827 185.3 L 1158.182 185.3 L 1158.182 166.85 Z M 220.886 573.466 L 280.531 573.466 L 280.531 591.916 L 220.886 591.916 L 220.886 573.466 L 220.886 573.466 Z M 260.344 530.694 L 319.989 530.694 L 319.989 549.144 L 260.344 549.144 L 260.344 530.694 Z M 303.116 562.444 L 362.761 562.444 L 362.761 580.894 L 303.116 580.894 L 303.116 562.444 Z M 1224.734 635.453 L 1284.379 635.453 L 1284.379 653.903 L 1224.734 653.903 L 1224.734 635.453 Z M 1264.192 592.681 L 1323.837 592.681 L 1323.837 611.131 L 1264.192 611.131 L 1264.192 592.681 Z M 1306.967 624.432 L 1332.227 624.432 L 1332.227 642.882 L 1306.967 642.882 L 1306.967 624.432 Z" fill="#e6edff"/>
    <path id="svg_3" d="M -31.773 749.561 L 1332.227 749.561 L 1332.227 929.362 L -31.773 929.362 L -31.773 749.561 L -31.773 749.561 Z" fill="url(#b)"/>
    <path id="svg_14" class="colorE6EDFF svgShape" d="M 556.702 628.965 L 556.702 645.104 C 556.702 654.556 549.039 662.219 539.587 662.219 L 376.277 662.219 C 375.677 664.792 375.374 667.425 375.374 670.068 L 375.374 691.982 L 573.453 691.982 L 573.453 628.964 L 556.702 628.964 L 556.702 628.965 Z" fill="#e6edff"/>
    <path id="svg_43" class="color5A8A45 svgShape" d="M 724.037 602.411 C 724.048 602.429 724.053 602.426 724.055 602.409 L 724.037 602.411 Z" fill="#5a8a45"/>
    <path id="svg_61" class="color5A8A45 svgShape" d="M 727.289 602.623 L 727.271 602.622 C 727.274 602.638 727.28 602.64 727.289 602.623 Z" fill="#5a8a45"/>
    <path id="svg_122" class="color709CF2 svgShape" d="M 959.79 884.599 L 342.727 884.599 L 356.971 872.82 L 367.244 864.331 L 374.535 858.299 L 385.693 849.07 L 393.645 842.5 L 405.819 832.43 L 414.501 825.248 L 427.85 814.216 L 437.13 806.539 L 875.461 806.539 L 883.76 814.216 L 895.674 825.248 L 903.435 832.43 L 914.31 842.5 L 921.409 849.07 L 931.376 858.299 L 937.894 864.331 L 947.062 872.82 L 959.79 884.599 Z" fill="#709cf2"/>
    <path id="svg_123" class="colorFFF svgShape" d="M 897.151 826.122 L 415.978 826.122 L 429.327 815.09 L 885.237 815.09 L 897.151 826.122 Z M 915.787 843.374 L 395.122 843.374 L 407.296 833.304 L 904.912 833.304 L 915.787 843.374 Z M 932.853 859.173 L 376.012 859.173 L 387.17 849.944 L 922.886 849.944 L 932.853 859.173 Z M 948.539 873.694 L 358.448 873.694 L 368.721 865.205 L 939.371 865.205 L 948.539 873.694 Z" fill="#ffffff"/>
    <path id="svg_124" class="colorFAA562 svgShape" d="M 1332.227 23.532 L 1332.227 59.772 L 1329.487 58.752 L 1318.297 76.312 L 1304.907 36.392 L 1303.797 33.072 L 1332.227 23.532 Z" fill="#faa562"/>
    <path id="svg_125" class="color5078DD svgShape" d="M 1243.66 94.376 L 1258.313 79.579 L 1275.852 90.807 L 1270.826 45.472 L 1238.633 49.041 L 1243.66 94.376 L 1243.66 94.376 Z" fill="#5078dd"/>
    <path id="svg_126" class="colorDE4F63 svgShape" d="M 1161.817 96.789 L 1179.301 85.475 L 1194.027 100.2 L 1198.831 54.842 L 1166.622 51.43 L 1161.817 96.789 L 1161.817 96.789 Z" fill="#de4f63"/>
    <path id="svg_127" class="colorFAA562 svgShape" d="M 1075.409 80.384 L 1094.423 71.89 L 1106.713 88.702 L 1118.426 44.618 L 1087.123 36.301 L 1075.409 80.384 L 1075.409 80.384 Z" fill="#faa562"/>
    <path id="svg_128" class="color5078DD svgShape" d="M 995.042 48.306 L 1015.497 44.4 L 1023.602 63.583 L 1045.116 23.363 L 1016.556 8.086 L 995.042 48.306 Z" fill="#5078dd"/>
    <path id="svg_129" class="colorDE4F63 svgShape" d="M 982.355 -11.788 L 981.04 -9.932 L 957.172 23.813 L 951.515 3.773 L 930.725 5.104 L 955.58 -30.02 L 956.031 -30.638 L 959.181 -30.638 L 969.653 -21.355 L 982.355 -11.788 L 982.355 -11.788 Z" fill="#de4f63"/>
    <path id="svg_130" class="colorFFF svgShape" d="M 1332.227 21.362 L 1332.227 25.612 C 1324.897 28.902 1315.937 32.572 1305.477 36.192 C 1305.287 36.262 1305.097 36.322 1304.907 36.392 C 1302.217 37.312 1299.427 38.242 1296.537 39.162 C 1288.087 41.822 1279.547 44.182 1270.917 46.212 L 1270.917 46.192 L 1270.907 46.192 C 1260.337 48.692 1249.687 50.692 1238.987 52.172 L 1238.977 52.172 C 1236.297 52.552 1233.627 52.892 1230.967 53.192 C 1220.278 54.434 1209.536 55.165 1198.777 55.382 L 1198.767 55.382 C 1187.917 55.622 1177.077 55.312 1166.297 54.502 C 1160.177 54.042 1154.067 53.412 1147.987 52.612 C 1137.818 51.281 1127.701 49.577 1117.657 47.502 L 1117.647 47.502 C 1107.072 45.335 1096.59 42.74 1086.227 39.722 L 1086.217 39.722 C 1076.897 37.022 1067.767 33.992 1058.827 30.622 C 1053.927 28.792 1049.117 26.872 1044.337 24.832 L 1044.327 24.832 C 1034.277 20.592 1024.497 15.932 1015.057 10.882 C 1008.407 7.342 1001.927 3.592 995.627 -0.318 C 990.337 -3.608 985.477 -6.828 981.037 -9.928 C 969.927 -17.708 961.447 -24.718 955.577 -30.018 C 955.357 -30.218 955.127 -30.428 954.907 -30.638 L 960.727 -30.638 C 963.297 -28.408 969.637 -23.248 969.637 -23.228 L 969.657 -23.218 C 973.647 -20.058 978.177 -16.648 983.267 -13.068 C 987.737 -9.948 992.617 -6.688 997.947 -3.398 C 1028.177 15.382 1078.867 39.682 1148.487 48.812 C 1209.627 56.822 1261.977 46.042 1295.117 35.572 C 1298.277 34.582 1301.317 33.562 1304.257 32.542 C 1311.227 30.122 1317.547 27.692 1323.137 25.312 C 1323.167 25.302 1323.187 25.302 1323.217 25.292 C 1323.237 25.272 1323.247 25.272 1323.277 25.262 C 1326.497 23.922 1329.487 22.612 1332.227 21.362 L 1332.227 21.362 Z" fill="#ffffff"/>
    <path id="svg_131" class="color5078DD svgShape" d="M 853.368 128.358 L 853.343 128.373 C 849.414 130.733 827.184 132.54 800.353 132.54 C 774.234 132.54 752.48 130.828 747.714 128.556 C 747.699 128.551 747.684 128.546 747.669 128.536 C 748.982 127.523 750.312 126.531 751.658 125.562 C 760.155 123.874 778.762 122.702 800.353 122.702 C 822.187 122.702 840.967 123.9 849.33 125.617 C 850.685 126.517 852.031 127.432 853.368 128.358 L 853.368 128.358 Z" fill="#5078dd"/>
    <path id="svg_132" class="colorFFF svgShape" d="M 799.903 -30.638 L 801.127 -30.638 L 801.127 101.673 L 799.903 101.673 L 799.903 -30.638 Z" fill="#ffffff"/>
    <path id="svg_133" class="colorFFF svgShape" d="M 803.775 86.895 L 797.207 86.895 L 797.207 83.784 C 797.207 81.256 799.944 79.676 802.133 80.94 C 803.149 81.526 803.775 82.61 803.775 83.784 L 803.775 86.895 Z M 791.199 121.327 C 791.199 114.693 798.381 110.546 804.126 113.863 C 806.792 115.403 808.435 118.248 808.435 121.327 C 808.435 127.961 801.253 132.107 795.508 128.79 C 792.841 127.251 791.199 124.406 791.199 121.327 Z" fill="#ffffff"/>
    <path id="svg_134" class="color709CF2 svgShape" d="M 853.412 128.387 L 853.343 128.372 C 827.976 122.894 775.545 123.374 747.714 128.555 C 747.679 128.565 747.649 128.57 747.62 128.575 C 747.635 128.56 747.655 128.55 747.669 128.536 C 748.982 127.523 750.312 126.531 751.658 125.562 C 759.734 119.713 768.553 114.467 778.109 109.825 C 781.338 108.257 784.006 105.732 785.75 102.595 C 788.66 97.369 794.118 94.083 800.101 94.083 L 800.433 94.083 C 806.544 94.083 812.3 97.31 815.18 102.694 C 816.843 105.797 819.381 108.4 822.563 110.003 C 831.951 114.724 840.838 119.96 849.33 125.616 C 850.686 126.517 852.032 127.432 853.368 128.358 L 853.412 128.387 L 853.412 128.387 Z" fill="#709cf2"/>
    <path id="svg_135" class="color709CF2 svgShape" d="M 806.082 95.448 L 794.899 95.448 L 794.899 89.857 C 794.899 85.553 799.558 82.863 803.285 85.015 C 805.015 86.013 806.081 87.859 806.081 89.857 L 806.081 95.448 L 806.082 95.448 Z" fill="#709cf2"/>
    <circle id="svg_136" class="colorFFF svgShape" fill="#ffffff" r="1.475" cy="80.5" cx="800.523"/>
    <path id="svg_137" class="colorFFF svgShape" d="M 799.048 78.165 C 799.018 77.03 800.228 76.288 801.226 76.829 C 801.713 77.094 802.011 77.609 801.997 78.164 C 801.968 79.299 800.721 79.977 799.752 79.384 C 799.326 79.123 799.061 78.664 799.048 78.165 Z" fill="#ffffff"/>
    <path id="svg_138" class="colorFFF svgShape" d="M 799.048 75.83 C 799.018 74.695 800.228 73.953 801.226 74.494 C 801.713 74.759 802.011 75.274 801.997 75.829 C 801.968 76.964 800.721 77.642 799.752 77.049 C 799.326 76.788 799.061 76.329 799.048 75.83 Z" fill="#ffffff"/>
    <path id="svg_139" class="colorFFF svgShape" d="M 799.048 73.494 C 799.048 72.358 800.277 71.649 801.26 72.216 C 801.717 72.48 801.998 72.967 801.998 73.494 C 801.998 74.629 800.769 75.339 799.785 74.771 C 799.329 74.508 799.048 74.021 799.048 73.494 Z" fill="#ffffff"/>
    <path id="svg_140" class="colorDE4F63 svgShape" d="M 806.088 219.099 L 806.063 219.114 C 802.134 221.474 779.904 223.281 753.073 223.281 C 726.954 223.281 705.2 221.569 700.434 219.297 C 700.419 219.292 700.404 219.287 700.389 219.277 C 701.702 218.264 703.032 217.272 704.378 216.303 C 712.875 214.615 731.482 213.443 753.073 213.443 C 774.907 213.443 793.687 214.641 802.05 216.358 C 803.406 217.259 804.752 218.174 806.088 219.099 L 806.088 219.099 Z" fill="#de4f63"/>
    <path id="svg_141" class="colorFFF svgShape" d="M 752.622 -30.638 L 753.846 -30.638 L 753.846 192.41 L 752.622 192.41 L 752.622 -30.638 Z" fill="#ffffff"/>
    <path id="svg_142" class="colorFFF svgShape" d="M 756.495 177.637 L 749.927 177.637 L 749.927 174.526 C 749.927 171.998 752.664 170.418 754.853 171.682 C 755.869 172.268 756.495 173.352 756.495 174.526 L 756.495 177.637 Z M 743.92 212.069 C 743.92 205.435 751.102 201.288 756.847 204.605 C 759.513 206.145 761.156 208.99 761.156 212.069 C 761.156 218.703 753.974 222.849 748.229 219.532 C 745.562 217.993 743.92 215.148 743.92 212.069 Z" fill="#ffffff"/>
    <path id="svg_143" class="colorF2758A svgShape" d="M 806.132 219.129 L 806.063 219.114 C 780.696 213.636 728.265 214.116 700.434 219.297 C 700.399 219.307 700.369 219.312 700.34 219.317 C 700.355 219.302 700.375 219.292 700.389 219.278 C 701.702 218.265 703.032 217.273 704.378 216.304 C 712.454 210.455 721.273 205.209 730.829 200.567 C 734.058 198.999 736.726 196.474 738.47 193.337 C 741.38 188.111 746.838 184.825 752.821 184.825 L 753.153 184.825 C 759.264 184.825 765.02 188.052 767.9 193.436 C 769.563 196.539 772.101 199.142 775.283 200.745 C 784.671 205.466 793.558 210.702 802.051 216.358 C 803.42 217.268 804.781 218.192 806.132 219.129 L 806.132 219.129 Z" fill="#f2758a"/>
    <path id="svg_144" class="colorF2758A svgShape" d="M 758.802 186.189 L 747.619 186.189 L 747.619 180.598 C 747.619 176.294 752.278 173.604 756.005 175.756 C 757.735 176.754 758.801 178.6 758.801 180.598 L 758.801 186.189 L 758.802 186.189 Z" fill="#f2758a"/>
    <circle id="svg_145" class="colorFFF svgShape" fill="#ffffff" r="1.475" cy="171.242" cx="753.243"/>
    <path id="svg_146" class="colorFFF svgShape" d="M 751.768 168.907 C 751.738 167.772 752.948 167.03 753.946 167.571 C 754.433 167.836 754.731 168.351 754.717 168.906 C 754.688 170.041 753.441 170.719 752.472 170.126 C 752.046 169.865 751.781 169.406 751.768 168.907 Z" fill="#ffffff"/>
    <path id="svg_147" class="colorFFF svgShape" d="M 751.768 166.571 C 751.738 165.436 752.948 164.694 753.946 165.235 C 754.433 165.5 754.731 166.015 754.717 166.57 C 754.688 167.705 753.441 168.383 752.472 167.79 C 752.046 167.529 751.781 167.07 751.768 166.571 Z" fill="#ffffff"/>
    <path id="svg_148" class="colorFFF svgShape" d="M 751.768 164.236 C 751.768 163.1 752.997 162.391 753.98 162.958 C 754.437 163.222 754.718 163.709 754.718 164.236 C 754.718 165.371 753.489 166.081 752.505 165.513 C 752.049 165.25 751.768 164.763 751.768 164.236 Z M 706.287 -30.638 L 707.511 -30.638 L 707.511 55.039 L 706.287 55.039 L 706.287 -30.638 Z" fill="#ffffff"/>
    <path id="svg_149" class="colorFFF svgShape" d="M 710.163 40.263 L 703.595 40.263 L 703.595 37.152 C 703.595 34.624 706.332 33.044 708.521 34.308 C 709.537 34.894 710.163 35.978 710.163 37.152 L 710.163 40.263 Z" fill="#ffffff"/>
    <path id="svg_150" class="colorFAA562 svgShape" d="M 712.47 48.815 L 701.287 48.815 L 701.287 43.224 C 701.287 38.92 705.946 36.23 709.673 38.382 C 711.403 39.38 712.469 41.226 712.469 43.224 L 712.469 48.815 L 712.47 48.815 Z" fill="#faa562"/>
    <circle id="svg_151" class="colorFFF svgShape" fill="#ffffff" r="1.475" cy="33.868" cx="706.911"/>
    <path id="svg_152" class="colorFFF svgShape" d="M 705.436 31.532 C 705.406 30.397 706.616 29.655 707.614 30.196 C 708.101 30.461 708.399 30.976 708.385 31.531 C 708.356 32.666 707.109 33.344 706.14 32.751 C 705.714 32.49 705.449 32.031 705.436 31.532 Z" fill="#ffffff"/>
    <path id="svg_153" class="colorFFF svgShape" d="M 705.436 29.197 C 705.406 28.062 706.616 27.32 707.614 27.861 C 708.101 28.126 708.399 28.641 708.385 29.196 C 708.356 30.331 707.109 31.009 706.14 30.416 C 705.714 30.155 705.449 29.696 705.436 29.197 Z" fill="#ffffff"/>
    <path id="svg_154" class="colorFFF svgShape" d="M 705.436 26.862 C 705.436 25.726 706.665 25.017 707.648 25.584 C 708.105 25.848 708.386 26.335 708.386 26.862 C 708.386 27.997 707.157 28.707 706.173 28.139 C 705.717 27.876 705.436 27.389 705.436 26.862 Z" fill="#ffffff"/>
    <path id="svg_155" class="colorED8A48 svgShape" d="M 759.756 81.725 L 759.731 81.74 C 755.802 84.1 733.573 85.907 706.741 85.907 C 680.622 85.907 658.868 84.195 654.102 81.923 C 654.087 81.918 654.072 81.913 654.057 81.903 C 655.37 80.89 656.7 79.898 658.046 78.929 C 666.543 77.241 685.15 76.069 706.741 76.069 C 728.575 76.069 747.355 77.267 755.718 78.984 C 757.073 79.884 758.42 80.8 759.756 81.725 L 759.756 81.725 Z" fill="#ed8a48"/>
    <path id="svg_156" class="colorFFF svgShape" d="M 697.588 74.694 C 697.588 68.06 704.77 63.913 710.515 67.23 C 713.181 68.77 714.824 71.615 714.824 74.694 C 714.824 81.328 707.642 85.474 701.897 82.157 C 699.23 80.618 697.588 77.773 697.588 74.694 Z" fill="#ffffff"/>
    <path id="svg_157" class="colorFAA562 svgShape" d="M 759.8 81.755 L 759.731 81.74 C 734.364 76.262 681.933 76.742 654.102 81.923 C 654.067 81.933 654.037 81.938 654.008 81.943 C 654.023 81.928 654.043 81.918 654.057 81.904 C 655.37 80.891 656.7 79.899 658.046 78.93 C 666.122 73.081 674.941 67.835 684.497 63.193 C 687.726 61.625 690.394 59.1 692.138 55.963 C 695.048 50.737 700.506 47.451 706.489 47.451 L 706.821 47.451 C 712.933 47.451 718.688 50.678 721.568 56.062 C 723.231 59.165 725.769 61.768 728.951 63.371 C 738.339 68.092 747.226 73.328 755.718 78.984 C 757.074 79.885 758.42 80.8 759.756 81.726 L 759.8 81.755 Z" fill="#faa562"/>
    <path id="svg_158" class="color415984 svgShape" d="M 271.319 43.548 L 271.319 168.074 L 176.454 168.074 L 176.454 43.548 L 271.319 43.548 L 271.319 43.548 Z" fill="#415984"/>
    <path id="svg_159" class="colorFFF svgShape" d="M 180.843 47.936 L 266.93 47.936 L 266.93 163.943 L 180.843 163.943 L 180.843 47.936 L 180.843 47.936 Z" fill="#ffffff"/>
    <path id="svg_160" class="colorBBD5E0 svgShape" d="M 229.625 120.219 C 256.742 109.18 269.831 139.71 247.285 150.136 C 232.752 156.856 207.343 149.878 206.599 134.502 C 205.736 116.637 223.351 122.773 229.625 120.219 Z" fill="#bbd5e0"/>
    <path id="svg_161" class="colorFFBAC6 svgShape" d="M 226.167 94.436 C 226.167 104.027 235.6 111.803 244.978 111.803 C 254.356 111.803 261.959 104.028 261.959 94.436 C 261.959 84.844 254.357 77.069 244.978 77.069 C 235.6 77.069 226.167 84.844 226.167 94.436 Z" fill="#ffbac6"/>
    <path id="svg_162" class="colorFAB982 svgShape" d="M 211.637 154.409 C 222.05 152.941 223.932 134.199 219.971 113.179 C 218.072 103.104 216.262 85.51 227.459 78.45 C 236.964 72.458 243.334 63.308 229.474 58.497 C 214.777 53.396 199.484 64.371 197.89 81.969 C 197.185 89.75 191.2 99.077 189.121 104.26 C 180.638 125.407 188.6 157.657 211.637 154.409 Z" fill="#fab982"/>
    <path id="svg_163" class="color4D7196 svgShape" d="M 240.935 106.951 C 239.618 107.089 238.29 107.023 236.974 107.17 C 235.795 107.301 234.682 107.682 233.614 108.188 C 231.599 109.142 229.909 110.67 229.215 112.829 C 228.849 113.967 228.931 115.136 229.653 116.107 C 229.043 117.371 228.551 118.688 228.182 120.042 C 226.759 117.935 225.398 115.787 224.1 113.601 C 224.458 112.17 224.956 110.778 225.587 109.445 C 226.119 109.852 226.819 109.99 227.49 109.869 C 228.552 109.677 229.359 108.892 229.898 108.005 C 230.418 107.149 230.846 106.224 231.214 105.294 C 231.636 104.208 232.284 103.224 233.115 102.407 C 234.08 101.465 235.263 100.776 236.559 100.403 C 236.807 100.332 236.789 99.9 236.505 99.93 C 235.188 100.068 233.86 100.002 232.544 100.149 C 231.365 100.28 230.252 100.661 229.184 101.167 C 227.169 102.12 225.479 103.649 224.785 105.808 C 224.419 106.946 224.501 108.115 225.223 109.085 C 224.615 110.346 224.123 111.661 223.754 113.012 C 222.34 110.602 221.004 108.148 219.749 105.652 C 220.107 104.232 220.603 102.853 221.225 101.534 C 221.757 101.941 222.457 102.079 223.128 101.958 C 224.19 101.766 224.997 100.98 225.536 100.094 C 226.056 99.238 226.484 98.313 226.852 97.383 C 227.274 96.296 227.922 95.312 228.754 94.496 C 229.719 93.553 230.902 92.865 232.198 92.493 C 232.446 92.422 232.428 91.99 232.145 92.02 C 230.828 92.158 229.5 92.092 228.184 92.239 C 227.005 92.37 225.892 92.751 224.824 93.257 C 222.809 94.21 221.119 95.739 220.425 97.898 C 220.059 99.036 220.141 100.205 220.863 101.175 C 220.27 102.402 219.788 103.68 219.423 104.993 C 219.126 104.393 218.836 103.8 218.559 103.219 C 218.556 103.209 218.55 103.2 218.545 103.19 C 217.839 101.706 217.163 100.208 216.517 98.698 C 216.877 97.237 217.383 95.816 218.026 94.457 C 218.558 94.864 219.258 95.002 219.929 94.881 C 220.991 94.689 221.798 93.904 222.337 93.017 C 222.858 92.161 223.285 91.236 223.653 90.306 C 224.075 89.22 224.723 88.236 225.554 87.419 C 226.519 86.477 227.702 85.788 228.998 85.415 C 229.246 85.344 229.228 84.912 228.945 84.942 C 227.628 85.08 226.3 85.014 224.984 85.161 C 223.805 85.292 222.692 85.673 221.624 86.179 C 219.609 87.132 217.919 88.661 217.225 90.82 C 216.859 91.958 216.941 93.128 217.663 94.098 C 217.062 95.341 216.576 96.637 216.209 97.969 C 215.128 95.399 214.136 92.792 213.235 90.154 C 213.271 90.125 213.296 90.085 213.306 90.04 C 213.666 88.572 214.175 87.148 214.818 85.787 C 215.35 86.194 216.05 86.332 216.721 86.211 C 217.783 86.019 218.59 85.233 219.129 84.347 C 219.65 83.491 220.077 82.566 220.445 81.636 C 220.867 80.55 221.515 79.566 222.346 78.749 C 223.311 77.807 224.494 77.118 225.79 76.745 C 226.038 76.674 226.02 76.242 225.737 76.272 C 224.42 76.41 223.092 76.344 221.776 76.491 C 220.597 76.622 219.484 77.003 218.416 77.509 C 216.401 78.463 214.711 79.991 214.017 82.15 C 213.651 83.288 213.733 84.457 214.455 85.428 C 213.841 86.7 213.346 88.026 212.977 89.39 C 211.977 86.386 211.263 83.829 210.772 81.862 C 211.156 80.323 211.693 78.828 212.376 77.397 C 212.908 77.802 213.606 77.939 214.275 77.818 C 215.337 77.626 216.144 76.84 216.683 75.954 C 217.204 75.098 217.631 74.173 217.999 73.243 C 218.421 72.156 219.069 71.172 219.901 70.356 C 220.866 69.413 222.049 68.725 223.345 68.353 C 223.593 68.282 223.575 67.85 223.292 67.88 C 221.975 68.018 220.646 67.952 219.331 68.099 C 218.152 68.23 217.039 68.611 215.971 69.117 C 213.956 70.071 212.266 71.599 211.572 73.758 C 211.205 74.898 211.288 76.068 212.013 77.039 C 211.412 78.277 210.917 79.564 210.535 80.887 C 210.021 78.717 209.823 77.479 209.818 77.445 C 209.726 75.864 209.471 74.297 209.058 72.769 C 210.562 71.423 210.238 69.258 209.501 67.593 C 208.543 65.429 206.262 64.369 204.233 63.373 C 202.78 62.66 201.227 62.188 199.681 61.721 C 199.424 61.643 199.239 62.033 199.489 62.158 C 201.804 63.313 203.384 65.472 203.873 67.983 C 204.073 69.011 204.337 70.053 204.731 71.025 C 205.091 71.913 205.713 72.72 206.623 73.096 C 207.282 73.368 208.014 73.359 208.634 73.046 C 209.014 74.492 209.252 75.976 209.336 77.477 C 209.336 77.483 209.339 77.487 209.34 77.492 C 209.34 77.501 209.337 77.509 209.339 77.518 C 209.345 77.556 209.598 79.149 210.284 81.902 C 210.374 82.264 210.467 82.625 210.562 82.986 C 209.589 82.056 208.538 81.214 207.419 80.467 C 207.688 78.27 205.652 76.774 203.815 76.055 C 202.761 75.642 201.603 75.549 200.479 75.6 C 199.31 75.653 198.103 75.827 197.01 76.252 C 195.619 76.793 194.379 77.637 193.022 78.249 C 192.77 78.363 192.941 78.757 193.2 78.691 C 195.478 78.113 197.964 78.551 199.892 79.894 C 201.482 81.002 203.306 82.79 205.429 82.398 C 206.244 82.247 206.981 81.716 207.288 80.957 C 208.537 81.805 209.699 82.775 210.756 83.854 C 210.771 83.869 210.787 83.876 210.803 83.886 C 211.489 86.402 212.461 89.566 213.803 93.194 C 212.741 92.101 211.53 91.149 210.261 90.302 C 210.453 88.278 208.665 86.724 206.944 85.904 C 205.948 85.429 204.837 85.241 203.741 85.188 C 202.597 85.132 201.387 85.189 200.281 85.504 C 198.828 85.917 197.518 86.695 196.099 87.197 C 195.807 87.3 195.907 87.715 196.217 87.663 C 198.549 87.276 201.036 87.948 202.83 89.484 C 204.279 90.725 205.999 92.635 208.114 92.38 C 209.034 92.269 209.867 91.696 210.16 90.812 C 211.675 91.838 213.096 93.018 214.267 94.422 C 215.299 97.122 216.426 99.784 217.645 102.405 C 216.488 101.494 215.207 100.75 213.858 100.131 C 213.679 98.294 211.895 97.093 210.235 96.495 C 209.223 96.131 208.184 96.155 207.135 96.342 C 205.982 96.548 204.833 96.89 203.721 97.251 C 202.213 97.74 200.794 98.457 199.385 99.172 C 199.145 99.294 199.301 99.695 199.563 99.614 C 201.826 98.913 204.351 99.224 206.356 100.489 C 207.98 101.514 209.933 103.204 212.011 102.673 C 212.976 102.427 213.741 101.684 213.867 100.688 L 213.867 100.661 C 215.418 101.39 216.872 102.292 218.132 103.442 C 218.487 104.187 218.86 104.95 219.249 105.726 C 219.251 105.79 219.281 105.85 219.331 105.891 C 219.861 106.944 220.426 108.027 221.02 109.131 C 219.484 108.378 217.871 107.795 216.208 107.394 C 215.618 105.775 213.808 105.051 212.161 104.833 C 211.05 104.686 210.044 104.862 209.017 105.304 C 207.866 105.799 206.776 106.483 205.724 107.159 C 204.367 108.03 203.165 109.111 201.972 110.186 C 201.771 110.367 202.027 110.714 202.261 110.567 C 204.395 109.225 207.024 108.932 209.402 109.769 C 210.364 110.112 211.349 110.418 212.355 110.605 C 213.339 110.788 214.397 110.753 215.255 110.183 C 216.016 109.678 216.469 108.835 216.352 107.925 C 218.061 108.357 219.714 108.985 221.279 109.798 C 221.319 109.819 221.358 109.825 221.395 109.825 C 222.498 111.84 223.653 113.826 224.859 115.781 C 223.585 115.202 222.252 114.762 220.883 114.47 C 220.36 112.733 218.48 111.97 216.777 111.744 C 215.666 111.597 214.66 111.773 213.633 112.215 C 212.482 112.71 211.392 113.394 210.34 114.07 C 208.983 114.941 207.781 116.022 206.588 117.097 C 206.387 117.278 206.643 117.625 206.877 117.478 C 209.011 116.137 211.64 115.843 214.018 116.679 C 214.98 117.022 215.965 117.328 216.971 117.515 C 217.955 117.698 219.013 117.663 219.871 117.093 C 220.591 116.615 221.03 115.834 220.977 114.981 C 222.484 115.325 223.949 115.829 225.332 116.545 C 226.208 117.943 227.11 119.324 228.038 120.689 C 228.05 120.752 228.087 120.808 228.142 120.843 C 228.67 121.618 229.216 122.398 229.776 123.181 C 228.567 122.603 227.31 122.13 226.02 121.768 C 225.631 119.822 223.637 118.985 221.841 118.747 C 220.73 118.6 219.724 118.776 218.697 119.218 C 217.546 119.713 216.456 120.397 215.404 121.073 C 214.047 121.944 212.845 123.025 211.652 124.1 C 211.451 124.281 211.707 124.628 211.941 124.481 C 214.075 123.14 216.704 122.846 219.082 123.683 C 220.044 124.026 221.029 124.332 222.035 124.519 C 223.019 124.702 224.077 124.667 224.935 124.097 C 225.573 123.673 225.99 123.011 226.041 122.272 C 227.489 122.69 228.898 123.249 230.24 123.948 C 230.272 123.965 230.308 123.975 230.345 123.977 C 235.933 131.688 242.351 138.762 249.484 145.073 C 249.584 145.16 249.736 145.152 249.826 145.054 C 249.915 144.955 249.906 144.802 249.806 144.715 C 241.745 137.581 234.604 129.473 228.545 120.577 C 228.903 119.163 229.396 117.787 230.019 116.468 C 230.551 116.875 231.251 117.013 231.922 116.892 C 232.984 116.7 233.791 115.915 234.33 115.028 C 234.85 114.172 235.278 113.247 235.646 112.317 C 236.068 111.231 236.716 110.247 237.547 109.43 C 238.512 108.487 239.695 107.799 240.991 107.427 C 241.236 107.353 241.218 106.921 240.935 106.951 L 240.935 106.951 Z M 225.621 105.053 C 226.206 103.908 227.091 102.943 228.181 102.262 C 229.294 101.558 230.585 100.976 231.886 100.727 C 232.91 100.531 233.954 100.527 234.996 100.497 C 233.58 101.195 232.382 102.265 231.528 103.593 C 230.989 104.435 230.683 105.381 230.259 106.279 C 229.813 107.223 229.333 108.284 228.466 108.92 C 227.682 109.495 226.553 109.65 225.801 108.998 C 226.763 107.069 227.997 105.288 229.465 103.709 C 229.675 103.483 229.338 103.138 229.126 103.366 C 227.669 104.933 226.436 106.694 225.463 108.6 C 224.77 107.508 225.05 106.163 225.621 105.053 L 225.621 105.053 Z M 221.26 97.142 C 221.845 95.997 222.73 95.032 223.82 94.351 C 224.933 93.647 226.224 93.065 227.525 92.816 C 228.549 92.62 229.593 92.616 230.635 92.586 C 229.219 93.284 228.02 94.354 227.167 95.682 C 226.628 96.524 226.322 97.47 225.898 98.368 C 225.452 99.312 224.972 100.373 224.105 101.009 C 223.321 101.584 222.192 101.739 221.439 101.087 C 222.401 99.158 223.635 97.377 225.103 95.798 C 225.314 95.572 224.976 95.227 224.764 95.455 C 223.307 97.022 222.074 98.783 221.101 100.689 C 220.409 99.597 220.689 98.252 221.26 97.142 L 221.26 97.142 Z M 218.06 90.066 C 218.645 88.921 219.53 87.956 220.62 87.275 C 221.733 86.571 223.024 85.989 224.325 85.74 C 225.349 85.544 226.394 85.54 227.435 85.51 C 226.019 86.208 224.82 87.278 223.966 88.606 C 223.427 89.448 223.121 90.394 222.697 91.292 C 222.251 92.236 221.771 93.297 220.904 93.933 C 220.12 94.508 218.991 94.663 218.238 94.011 C 219.2 92.081 220.434 90.3 221.903 88.722 C 222.113 88.496 221.776 88.151 221.564 88.379 C 220.107 89.946 218.874 91.707 217.901 93.613 C 217.209 92.52 217.49 91.175 218.06 90.066 L 218.06 90.066 Z M 214.852 81.396 C 215.437 80.251 216.322 79.286 217.412 78.605 C 218.525 77.901 219.816 77.319 221.117 77.07 C 222.141 76.874 223.186 76.87 224.227 76.84 C 222.811 77.538 221.612 78.608 220.759 79.936 C 220.22 80.778 219.914 81.724 219.49 82.622 C 219.044 83.566 218.564 84.627 217.697 85.263 C 216.913 85.838 215.784 85.993 215.031 85.341 C 215.993 83.411 217.227 81.63 218.696 80.052 C 218.906 79.826 218.569 79.481 218.357 79.709 C 216.9 81.276 215.667 83.037 214.694 84.943 C 214.001 83.85 214.282 82.505 214.852 81.396 L 214.852 81.396 Z M 212.407 73.002 C 212.992 71.857 213.877 70.892 214.967 70.211 C 216.08 69.507 217.371 68.925 218.672 68.676 C 219.696 68.48 220.741 68.476 221.782 68.446 C 220.366 69.144 219.167 70.214 218.314 71.542 C 217.775 72.384 217.469 73.33 217.045 74.228 C 216.599 75.172 216.119 76.233 215.252 76.869 C 214.47 77.443 213.345 77.598 212.592 76.952 C 213.555 75.023 214.787 73.241 216.25 71.658 C 216.46 71.432 216.123 71.086 215.911 71.315 C 214.457 72.886 213.226 74.649 212.253 76.556 C 211.555 75.462 211.835 74.113 212.407 73.002 L 212.407 73.002 Z M 204.911 81.969 C 203.806 81.995 202.835 81.368 201.949 80.785 C 201.138 80.252 200.404 79.6 199.563 79.115 C 198.059 78.251 196.331 77.856 194.601 77.981 C 195.532 77.472 196.452 76.937 197.458 76.593 C 198.728 76.159 200.161 76.012 201.497 76.077 C 203.69 76.183 207.019 77.593 206.955 80.161 C 205.147 79.011 203.19 78.116 201.138 77.5 C 200.839 77.41 200.705 77.872 201.003 77.961 C 203.076 78.583 205.051 79.497 206.868 80.674 C 206.591 81.482 205.769 81.948 204.911 81.969 L 204.911 81.969 Z M 206.574 72.538 C 205.661 72.038 205.228 71.084 204.927 70.141 C 204.608 69.142 204.45 68.112 204.171 67.106 C 203.87 66.035 203.363 65.033 202.679 64.156 C 202.26 63.618 201.779 63.132 201.246 62.708 C 201.924 62.924 202.593 63.171 203.25 63.446 C 204.328 63.905 205.389 64.474 206.396 65.071 C 207.323 65.62 208.263 66.275 208.79 67.238 C 209.197 67.981 209.497 68.807 209.609 69.648 C 209.736 70.597 209.549 71.53 208.906 72.232 C 208.305 70.192 207.423 68.246 206.286 66.449 C 206.121 66.188 205.698 66.423 205.865 66.686 C 207.022 68.512 207.911 70.494 208.506 72.573 C 207.921 72.922 207.167 72.862 206.574 72.538 Z M 207.671 91.918 C 206.548 91.887 205.61 91.176 204.765 90.514 C 203.99 89.907 203.304 89.186 202.497 88.622 C 201.067 87.629 199.371 87.091 197.63 87.077 C 198.56 86.66 199.479 86.217 200.463 85.947 C 201.745 85.595 203.174 85.574 204.489 85.727 C 205.779 85.877 206.958 86.327 208.004 87.094 C 208.965 87.799 209.792 88.802 209.792 89.994 C 208.02 88.862 206.142 87.906 204.185 87.139 C 203.895 87.025 203.762 87.487 204.05 87.6 C 205.991 88.361 207.852 89.314 209.605 90.443 L 209.737 90.531 L 209.732 90.56 C 209.489 91.469 208.575 91.943 207.671 91.918 L 207.671 91.918 Z M 211.301 102.284 C 210.231 102.308 209.27 101.748 208.379 101.224 C 207.537 100.728 206.764 100.108 205.887 99.673 C 204.98 99.224 204.003 98.935 202.999 98.818 C 202.406 98.747 201.807 98.739 201.213 98.794 C 202.182 98.33 203.168 97.906 204.201 97.6 C 205.453 97.229 206.735 96.803 208.044 96.699 C 209.284 96.6 210.425 96.971 211.478 97.61 C 212.367 98.15 213.116 98.913 213.327 99.893 C 211.429 99.077 209.417 98.491 207.449 98.014 C 207.147 97.941 207.011 98.402 207.314 98.476 C 209.347 98.969 211.433 99.579 213.387 100.444 C 213.387 100.52 213.385 100.597 213.379 100.676 C 213.252 101.678 212.251 102.262 211.301 102.284 Z M 214.649 109.966 C 213.658 110.424 212.555 110.187 211.547 109.927 C 210.592 109.681 209.679 109.293 208.724 109.059 C 207.036 108.65 205.264 108.752 203.634 109.352 C 204.167 108.892 204.712 108.446 205.285 108.035 C 206.233 107.356 207.261 106.745 208.289 106.191 C 209.263 105.667 210.333 105.193 211.465 105.248 C 212.305 105.289 213.162 105.453 213.936 105.788 C 214.665 106.104 215.276 106.589 215.622 107.258 C 213.832 106.871 212.003 106.696 210.172 106.738 C 209.861 106.745 209.849 107.226 210.161 107.219 C 212.065 107.175 213.967 107.368 215.823 107.793 C 215.842 107.864 215.865 107.932 215.879 108.006 C 216 108.865 215.401 109.619 214.649 109.966 L 214.649 109.966 Z M 219.264 116.876 C 218.273 117.334 217.17 117.097 216.162 116.837 C 215.207 116.591 214.294 116.203 213.339 115.969 C 211.651 115.56 209.879 115.662 208.249 116.262 C 208.782 115.802 209.327 115.356 209.9 114.945 C 210.848 114.266 211.877 113.655 212.904 113.102 C 213.878 112.578 214.948 112.104 216.08 112.159 C 216.92 112.2 217.777 112.364 218.551 112.699 C 219.343 113.042 219.991 113.589 220.316 114.352 C 218.265 113.957 216.152 113.835 214.069 113.886 C 213.758 113.894 213.746 114.374 214.058 114.366 C 216.199 114.314 218.376 114.441 220.481 114.87 C 220.484 114.886 220.49 114.9 220.493 114.916 C 220.616 115.774 220.016 116.528 219.264 116.876 L 219.264 116.876 Z M 224.328 123.88 C 223.337 124.338 222.234 124.101 221.226 123.841 C 220.271 123.595 219.358 123.207 218.403 122.973 C 216.715 122.564 214.943 122.666 213.313 123.266 C 213.844 122.803 214.395 122.363 214.964 121.949 C 215.925 121.271 216.929 120.655 217.968 120.105 C 218.942 119.581 220.012 119.107 221.144 119.162 C 221.984 119.203 222.841 119.367 223.615 119.702 C 224.497 120.084 225.201 120.715 225.479 121.619 C 223.407 121.086 221.272 120.84 219.133 120.888 C 218.822 120.895 218.81 121.376 219.122 121.368 C 221.3 121.318 223.473 121.578 225.567 122.135 C 225.569 122.903 225.015 123.562 224.328 123.88 Z M 235.957 110.614 C 235.418 111.456 235.112 112.402 234.688 113.3 C 234.242 114.244 233.762 115.305 232.895 115.941 C 232.111 116.516 230.982 116.671 230.229 116.019 C 231.191 114.09 232.425 112.309 233.893 110.73 C 234.104 110.504 233.766 110.159 233.554 110.387 C 232.097 111.954 230.864 113.715 229.891 115.621 C 229.199 114.529 229.479 113.184 230.049 112.075 C 230.634 110.93 231.519 109.965 232.609 109.284 C 233.722 108.58 235.013 107.998 236.314 107.749 C 237.338 107.553 238.382 107.549 239.424 107.519 C 238.009 108.217 236.811 109.287 235.957 110.614 L 235.957 110.614 Z" fill="#4d7196"/>
    <path id="svg_164" class="color415984 svgShape" d="M 476.417 85.706 L 476.417 232.1 L 364.891 232.1 L 364.891 85.706 L 476.417 85.706 Z" fill="#415984"/>
    <path id="svg_165" class="colorFFF svgShape" d="M 370.055 90.867 L 471.261 90.867 L 471.261 227.241 L 370.055 227.241 L 370.055 90.867 L 370.055 90.867 Z" fill="#ffffff"/>
    <path id="svg_166" class="colorBBD5E0 svgShape" d="M 471.257 172.426 L 471.257 227.245 L 413.965 227.245 C 411.168 221.915 409.599 215.937 409.599 209.623 C 409.599 187.22 429.327 169.06 453.667 169.06 C 459.921 169.059 465.872 170.256 471.257 172.426 L 471.257 172.426 Z" fill="#bbd5e0"/>
    <path id="svg_167" class="colorFAB982 svgShape" d="M 370.055 214.434 L 370.055 151.465 C 387.439 151.465 394.324 167.125 401.53 182.949 C 408.784 198.861 387.439 214.434 370.055 214.434 Z" fill="#fab982"/>
    <path id="svg_168" class="colorFFBAC6 svgShape" d="M 419.059 116.07 C 400.331 103.912 379.609 111.822 378.964 90.867 L 462.456 90.867 C 463.823 113.946 438.681 128.813 419.059 116.07 Z" fill="#ffbac6"/>
    <path id="svg_169" class="color4D7196 svgShape" d="M 471.261 150.997 C 464.374 151.178 456.067 149.595 451.071 142.338 C 441.294 128.116 429.626 123.344 410.769 125.854 C 387.811 128.907 375.145 115.484 370.055 108.184 L 370.055 109.654 C 375.67 117.272 388.473 129.689 410.881 126.705 C 429.6 124.211 440.675 128.734 450.366 142.819 C 455.319 150.033 463.358 151.865 470.255 151.865 C 470.59 151.865 470.926 151.856 471.261 151.848 L 471.261 150.997 Z" fill="#4d7196"/>
    <path id="svg_170" class="color4D7196 svgShape" d="M 471.261 161.186 C 464.038 161.745 454.485 160.653 448.973 152.639 C 439.205 138.417 427.528 133.645 408.671 136.155 C 388.387 138.855 376.142 129.25 370.055 122.199 L 370.055 123.497 C 376.478 130.608 388.817 139.662 408.783 137.005 C 427.502 134.511 438.577 139.026 448.268 153.119 C 453.221 160.325 461.26 162.156 468.165 162.156 C 469.198 162.155 470.23 162.115 471.26 162.036 L 471.26 161.186 L 471.261 161.186 L 471.261 161.186 Z" fill="#4d7196"/>
    <path id="svg_171" class="colorBBD5E0 svgShape" d="M 416.479 158.617 C 413.959 164.18 404.49 169.632 401.843 164.128 C 398.448 157.07 393.812 155.055 396.332 149.492 C 398.852 143.929 405 142.686 410.968 143.981 C 418.244 145.56 418.999 153.054 416.479 158.617 Z" fill="#bbd5e0"/>
    <path id="svg_172" class="colorFFBAC6 svgShape" d="M 457.468 123.369 C 460.394 119.792 465.984 125.747 465.492 129.711 C 464.975 133.881 463.118 137.271 459.15 137.735 C 455.183 138.2 452.413 135.174 451.126 131.393 C 449.557 126.784 454.939 126.46 457.468 123.369 Z" fill="#ffbac6"/>
    <path id="svg_173" class="color4D7196 svgShape" d="M 471.261 172.857 C 464.038 173.416 454.485 172.324 448.973 164.31 C 439.205 150.088 427.528 145.316 408.671 147.826 C 388.387 150.526 376.142 140.921 370.055 133.87 L 370.055 135.168 C 376.478 142.279 388.817 151.333 408.783 148.676 C 427.502 146.182 438.577 150.697 448.268 164.79 C 453.221 171.996 461.26 173.827 468.165 173.827 C 469.198 173.826 470.23 173.786 471.26 173.707 L 471.26 172.857 L 471.261 172.857 L 471.261 172.857 Z" fill="#4d7196"/>
    <g stroke="null" transform="matrix(1, 0, 0, 1, -427.755005, 28.957993)">
      <g stroke="null" class="color000 svgShape" fill="#000000" data-name="Layer 2">
        <g stroke="null" class="color000 svgShape" fill="#000000" data-name="Layer 1">
          <polygon stroke="null" class="colore0b080 svgShape" points="1055.503433227539,814.8537559509277 1050.7525787353516,294.29418563842773 1252.7288970947266,301.3178062438965 1232.1226959228516,814.8537559509277 1055.503433227539,814.8537559509277 " fill="#e0b080"/>
          <polygon stroke="null" class="colorc6854f svgShape" points="1071.2025299072266,321.2116355895996 1230.653823852539,329.98879623413086 1212.4989166259766,794.7293663024902 1078.5609283447266,794.7293663024902 1071.2025299072266,321.2116355895996 " fill="#c6854f"/>
          <polygon stroke="null" class="colora3612f svgShape" points="1134.1239166259766,324.67541122436523 1134.1239166259766,794.7293663024902 1078.5609283447266,794.7293663024902 1071.2025299072266,321.2116355895996 1134.1239166259766,324.67541122436523 " fill="#a3612f"/>
          <polygon stroke="null" class="colord19661 svgShape" points="1252.7288970947266,301.3178062438965 1292.597183227539,321.2116355895996 1280.546157836914,813.8641319274902 1232.1226959228516,813.8641319274902 1252.7288970947266,301.3178062438965 " fill="#d19661"/>
          <polygon stroke="null" class="colore0b080 svgShape" points="1071.2025299072266,321.2116355895996 985.2146759033203,309.148494720459 993.1089019775391,803.1461753845215 1078.5609283447266,794.7293663024902 1071.2025299072266,321.2116355895996 " fill="#e0b080"/>
          <polygon stroke="null" class="colore5bd98 svgShape" points="1071.2025299072266,321.2116355895996 1061.5223541259766,319.852108001709 1067.1795806884766,794.7293663024902 1078.5609283447266,794.7293663024902 1071.2025299072266,321.2116355895996 " fill="#e5bd98"/>
          <polygon stroke="null" class="color514135 svgShape" points="1071.8678131103516,363.8914451599121 1078.5609283447266,363.8914451599121 1078.5609283447266,417.37084579467773 1072.698257446289,417.37084579467773 1071.8678131103516,363.8914451599121 " fill="#514135"/>
          <polygon stroke="null" class="color514135 svgShape" points="1077.127700805664,702.298152923584 1082.8250885009766,702.298152923584 1082.8250885009766,747.6971397399902 1077.8331451416016,747.6971397399902 1077.127700805664,702.298152923584 " fill="#514135"/>
          <polygon stroke="null" class="colorc6854f svgShape" points="996.1272735595703,567.047908782959 1057.856460571289,566.0294151306152 1057.700210571289,551.367244720459 995.8772125244141,551.862117767334 996.1272735595703,567.047908782959 " fill="#c6854f"/>
          <polygon stroke="null" class="colorc6854f svgShape" points="996.9086456298828,614.0849571228027 1058.343276977539,611.4523277282715 1058.1869049072266,596.7950401306152 996.6586456298828,598.913631439209 996.9086456298828,614.0849571228027 " fill="#c6854f"/>
          <polygon stroke="null" class="colorc6854f svgShape" points="995.7388458251953,543.5173301696777 1057.6153717041016,543.3107261657715 1057.454605102539,528.6437950134277 995.4887847900391,528.3219566345215 995.7388458251953,543.5173301696777 " fill="#c6854f"/>
          <polygon stroke="null" class="colorc6854f svgShape" points="995.3503570556641,519.9723472595215 1057.369888305664,520.5825157165527 1057.2135162353516,505.910701751709 995.0959014892578,504.7721519470215 995.3503570556641,519.9723472595215 " fill="#c6854f"/>
          <polygon stroke="null" class="colorc6854f svgShape" points="994.1761016845703,449.2749900817871 1056.6419830322266,452.36400985717773 1056.481216430664,437.682674407959 993.9259796142578,434.05556869506836 994.1761016845703,449.2749900817871 " fill="#c6854f"/>
          <polygon stroke="null" class="colorc6854f svgShape" points="997.2971954345703,637.5915489196777 1058.5843658447266,634.1517906188965 1058.4281158447266,619.5040245056152 997.0470733642578,622.4201622009277 997.2971954345703,637.5915489196777 " fill="#c6854f"/>
          <polygon stroke="null" class="colorc6854f svgShape" points="994.9574737548828,496.417781829834 1057.128677368164,497.84936141967773 1056.968032836914,483.17284774780273 994.7074127197266,481.2079429626465 994.9574737548828,496.417781829834 " fill="#c6854f"/>
          <polygon stroke="null" class="colorc6854f svgShape" points="994.5689849853516,472.853572845459 1056.8831939697266,475.11156845092773 1056.7269439697266,460.4301414489746 994.3144683837891,457.63894271850586 994.5689849853516,472.853572845459 " fill="#c6854f"/>
          <polygon stroke="null" class="colorc6854f svgShape" points="999.2439117431641,754.9512901306152 1059.798843383789,747.562557220459 1059.642593383789,732.9340171813965 998.9893951416016,739.8182945251465 999.2439117431641,754.9512901306152 " fill="#c6854f"/>
          <polygon stroke="null" class="colorc6854f svgShape" points="999.6323394775391,778.3905601501465 1060.040054321289,770.2235679626465 1059.883560180664,755.599910736084 999.3778839111328,763.2623863220215 999.6323394775391,778.3905601501465 " fill="#c6854f"/>
          <polygon stroke="null" class="colorc6854f svgShape" points="997.6855621337891,661.0836143493652 1058.8299713134766,656.8464317321777 1058.673599243164,642.2034873962402 997.4355621337891,645.9218711853027 997.6855621337891,661.0836143493652 " fill="#c6854f"/>
          <polygon stroke="null" class="colorc6854f svgShape" points="999.9002838134766,794.7293663024902 1060.2274322509766,787.3502159118652 1060.129165649414,778.2608604431152 999.7663116455078,786.7016563415527 999.9002838134766,794.7293663024902 " fill="#c6854f"/>
          <polygon stroke="null" class="colorc6854f svgShape" points="998.0740509033203,684.566219329834 1059.0709381103516,679.5362510681152 1058.9146881103516,664.893367767334 997.8240509033203,669.4091758728027 998.0740509033203,684.566219329834 " fill="#c6854f"/>
          <polygon stroke="null" class="colorc6854f svgShape" points="998.8554229736328,731.497615814209 1059.5577545166016,724.8919639587402 1059.4015045166016,710.258602142334 998.6009063720703,716.3598594665527 998.8554229736328,731.497615814209 " fill="#c6854f"/>
          <polygon stroke="null" class="colorc6854f svgShape" points="998.4669342041016,708.0390586853027 1059.3165435791016,702.2164878845215 1059.1558990478516,687.5783653259277 998.2124786376953,692.8868980407715 998.4669342041016,708.0390586853027 " fill="#c6854f"/>
          <polygon stroke="null" class="colorc6854f svgShape" points="996.5202178955078,590.5736656188965 1058.102066040039,588.7432823181152 1057.941421508789,574.0859336853027 996.2657012939453,575.3926963806152 996.5202178955078,590.5736656188965 " fill="#c6854f"/>
          <polygon stroke="null" class="colorc6854f svgShape" points="992.3632354736328,339.62585067749023 992.6133575439453,354.8741111755371 1055.6641998291016,361.31643295288086 1055.5079498291016,346.61584091186523 992.3632354736328,339.62585067749023 " fill="#c6854f"/>
          <polygon stroke="null" class="colorc6854f svgShape" points="1055.315933227539,328.66283798217773 992.0373077392578,320.05385971069336 992.2204132080078,331.24746322631836 1055.4229888916016,338.540096282959 1055.315933227539,328.66283798217773 " fill="#c6854f"/>
          <polygon stroke="null" class="colorc6854f svgShape" points="993.7876129150391,425.6915855407715 1056.3963775634766,429.6117515563965 1056.2401275634766,414.92553329467773 993.5330963134766,410.46252059936523 993.7876129150391,425.6915855407715 " fill="#c6854f"/>
          <polygon stroke="null" class="colorc6854f svgShape" points="993.3946685791016,402.09374618530273 1056.1554107666016,406.85464096069336 1055.9945220947266,392.1636619567871 993.1446685791016,386.859920501709 993.3946685791016,402.09374618530273 " fill="#c6854f"/>
          <polygon stroke="null" class="colorc6854f svgShape" points="993.0062408447266,378.4911460876465 1055.9098052978516,384.087947845459 1055.7535552978516,369.392147064209 992.7517242431641,363.2476463317871 993.0062408447266,378.4911460876465 " fill="#c6854f"/>
          <polygon stroke="null" class="colore0b080 svgShape" points="1055.4229888916016,338.540096282959 992.2204132080078,331.24746322631836 992.3632354736328,339.62585067749023 1055.5079498291016,346.61584091186523 1055.4229888916016,338.540096282959 " fill="#e0b080"/>
          <polygon stroke="null" class="colore0b080 svgShape" points="992.7517242431641,363.2476463317871 1055.7535552978516,369.392147064209 1055.6641998291016,361.31643295288086 992.6133575439453,354.8741111755371 992.7517242431641,363.2476463317871 " fill="#e0b080"/>
          <polygon stroke="null" class="colore0b080 svgShape" points="993.1446685791016,386.859920501709 1055.9945220947266,392.1636619567871 1055.9098052978516,384.087947845459 993.0062408447266,378.4911460876465 993.1446685791016,386.859920501709 " fill="#e0b080"/>
          <polygon stroke="null" class="colore0b080 svgShape" points="993.5330963134766,410.46252059936523 1056.2401275634766,414.92553329467773 1056.1554107666016,406.85464096069336 993.3946685791016,402.09374618530273 993.5330963134766,410.46252059936523 " fill="#e0b080"/>
          <polygon stroke="null" class="colore0b080 svgShape" points="993.9259796142578,434.05556869506836 1056.481216430664,437.682674407959 1056.3963775634766,429.6117515563965 993.7876129150391,425.6915855407715 993.9259796142578,434.05556869506836 " fill="#e0b080"/>
          <polygon stroke="null" class="colore0b080 svgShape" points="994.3144683837891,457.63894271850586 1056.7269439697266,460.4301414489746 1056.6419830322266,452.36400985717773 994.1761016845703,449.2749900817871 994.3144683837891,457.63894271850586 " fill="#e0b080"/>
          <polygon stroke="null" class="colore0b080 svgShape" points="994.7074127197266,481.2079429626465 1056.968032836914,483.17284774780273 1056.8831939697266,475.11156845092773 994.5689849853516,472.853572845459 994.7074127197266,481.2079429626465 " fill="#e0b080"/>
          <polygon stroke="null" class="colore0b080 svgShape" points="995.0959014892578,504.7721519470215 1057.2135162353516,505.910701751709 1057.128677368164,497.84936141967773 994.9574737548828,496.417781829834 995.0959014892578,504.7721519470215 " fill="#e0b080"/>
          <polygon stroke="null" class="colore0b080 svgShape" points="995.4887847900391,528.3219566345215 1057.454605102539,528.6437950134277 1057.369888305664,520.5825157165527 995.3503570556641,519.9723472595215 995.4887847900391,528.3219566345215 " fill="#e0b080"/>
          <polygon stroke="null" class="colore0b080 svgShape" points="995.8772125244141,551.862117767334 1057.700210571289,551.367244720459 1057.6153717041016,543.3107261657715 995.7388458251953,543.5173301696777 995.8772125244141,551.862117767334 " fill="#e0b080"/>
          <polygon stroke="null" class="colore0b080 svgShape" points="996.2657012939453,575.3926963806152 1057.941421508789,574.0859336853027 1057.856460571289,566.0294151306152 996.1272735595703,567.047908782959 996.2657012939453,575.3926963806152 " fill="#e0b080"/>
          <polygon stroke="null" class="colore0b080 svgShape" points="996.6586456298828,598.913631439209 1058.1869049072266,596.7950401306152 1058.102066040039,588.7432823181152 996.5202178955078,590.5736656188965 996.6586456298828,598.913631439209 " fill="#e0b080"/>
          <polygon stroke="null" class="colore0b080 svgShape" points="997.0470733642578,622.4201622009277 1058.4281158447266,619.5040245056152 1058.343276977539,611.4523277282715 996.9086456298828,614.0849571228027 997.0470733642578,622.4201622009277 " fill="#e0b080"/>
          <polygon stroke="null" class="colore0b080 svgShape" points="997.4355621337891,645.9218711853027 1058.673599243164,642.2034873962402 1058.5843658447266,634.1517906188965 997.2971954345703,637.5915489196777 997.4355621337891,645.9218711853027 " fill="#e0b080"/>
          <polygon stroke="null" class="colore0b080 svgShape" points="997.8240509033203,669.4091758728027 1058.9146881103516,664.893367767334 1058.8299713134766,656.8464317321777 997.6855621337891,661.0836143493652 997.8240509033203,669.4091758728027 " fill="#e0b080"/>
          <polygon stroke="null" class="colore0b080 svgShape" points="998.2124786376953,692.8868980407715 1059.1558990478516,687.5783653259277 1059.0709381103516,679.5362510681152 998.0740509033203,684.566219329834 998.2124786376953,692.8868980407715 " fill="#e0b080"/>
          <polygon stroke="null" class="colore0b080 svgShape" points="998.6009063720703,716.3598594665527 1059.4015045166016,710.258602142334 1059.3165435791016,702.2164878845215 998.4669342041016,708.0390586853027 998.6009063720703,716.3598594665527 " fill="#e0b080"/>
          <polygon stroke="null" class="colore0b080 svgShape" points="998.9893951416016,739.8182945251465 1059.642593383789,732.9340171813965 1059.5577545166016,724.8919639587402 998.8554229736328,731.497615814209 998.9893951416016,739.8182945251465 " fill="#e0b080"/>
          <polygon stroke="null" class="colore0b080 svgShape" points="999.3778839111328,763.2623863220215 1059.883560180664,755.599910736084 1059.798843383789,747.562557220459 999.2439117431641,754.9512901306152 999.3778839111328,763.2623863220215 " fill="#e0b080"/>
          <polygon stroke="null" class="colore0b080 svgShape" points="999.7663116455078,786.7016563415527 1060.129165649414,778.2608604431152 1060.040054321289,770.2235679626465 999.6323394775391,778.3905601501465 999.7663116455078,786.7016563415527 " fill="#e0b080"/>
          <polygon stroke="null" class="colore5bd98 svgShape" points="1236.726089477539,330.27700424194336 1313.078384399414,323.8058738708496 1288.132339477539,807.9022178649902 1213.0033111572266,794.325740814209 1236.726089477539,330.27700424194336 " fill="#e5bd98"/>
          <polygon stroke="null" class="colorc6854f svgShape" points="1293.744888305664,574.186824798584 1233.4666900634766,568.9359092712402 1234.149917602539,554.677303314209 1294.535171508789,559.4237632751465 1293.744888305664,574.186824798584 " fill="#c6854f"/>
          <polygon stroke="null" class="colorc6854f svgShape" points="1291.2845611572266,619.912410736084 1231.3502349853516,613.1097373962402 1232.033462524414,598.8607139587402 1292.0748443603516,605.1589317321777 1291.2845611572266,619.912410736084 " fill="#c6854f"/>
          <polygon stroke="null" class="colorc6854f svgShape" points="1294.972671508789,551.309627532959 1234.524917602539,546.8417930603027 1235.208023071289,532.5783653259277 1295.7674713134766,536.536922454834 1294.972671508789,551.309627532959 " fill="#c6854f"/>
          <polygon stroke="null" class="colorc6854f svgShape" points="1296.205093383789,528.4227867126465 1235.5831451416016,524.7380332946777 1236.266372680664,510.469783782959 1296.999771118164,513.645320892334 1296.205093383789,528.4227867126465 " fill="#c6854f"/>
          <polygon stroke="null" class="colorc6854f svgShape" points="1299.8975982666016,459.6998863220215 1238.7577056884766,458.39318466186523 1239.440933227539,444.11535263061523 1300.6969146728516,444.90322494506836 1299.8975982666016,459.6998863220215 " fill="#c6854f"/>
          <polygon stroke="null" class="colorc6854f svgShape" points="1290.056655883789,642.7607383728027 1230.292007446289,635.1895713806152 1230.9752349853516,620.940486907959 1290.846939086914,628.016902923584 1290.056655883789,642.7607383728027 " fill="#c6854f"/>
          <polygon stroke="null" class="colorc6854f svgShape" points="1297.437271118164,505.52160263061523 1236.641372680664,502.62951278686523 1237.324478149414,488.35644149780273 1298.2320709228516,490.73937606811523 1297.437271118164,505.52160263061523 " fill="#c6854f"/>
          <polygon stroke="null" class="colorc6854f svgShape" points="1298.665298461914,482.615535736084 1237.6996002197266,480.516170501709 1238.3827056884766,466.238338470459 1299.4644927978516,467.82372665405273 1298.665298461914,482.615535736084 " fill="#c6854f"/>
          <polygon stroke="null" class="colorc6854f svgShape" points="1283.9171295166016,756.8489952087402 1225.014419555664,745.4824180603027 1225.697525024414,731.2525596618652 1284.7120513916016,742.138729095459 1283.9171295166016,756.8489952087402 " fill="#c6854f"/>
          <polygon stroke="null" class="colorc6854f svgShape" points="1282.6937408447266,779.6396446228027 1223.960708618164,767.518856048584 1224.6392974853516,753.298641204834 1283.4840240478516,764.9294395446777 1282.6937408447266,779.6396446228027 " fill="#c6854f"/>
          <polygon stroke="null" class="colorc6854f svgShape" points="1288.8243560791016,665.5995445251465 1229.238296508789,657.2596397399902 1229.921401977539,643.0153770446777 1289.619155883789,650.8605918884277 1288.8243560791016,665.5995445251465 " fill="#c6854f"/>
          <polygon stroke="null" class="colorc6854f svgShape" points="1281.8365631103516,795.522029876709 1223.1612701416016,784.1747398376465 1223.5855865478516,775.3351402282715 1282.2562408447266,787.715389251709 1281.8365631103516,795.522029876709 " fill="#c6854f"/>
          <polygon stroke="null" class="colorc6854f svgShape" points="1287.600845336914,688.4238243103027 1228.1800689697266,679.3249473571777 1228.863296508789,665.0854454040527 1288.391128540039,673.6944541931152 1287.600845336914,688.4238243103027 " fill="#c6854f"/>
          <polygon stroke="null" class="colorc6854f svgShape" points="1285.1451568603516,734.0534019470215 1226.0726470947266,723.436336517334 1226.7513580322266,709.2016563415527 1285.9354400634766,719.3336143493652 1285.1451568603516,734.0534019470215 " fill="#c6854f"/>
          <polygon stroke="null" class="colorc6854f svgShape" points="1286.373062133789,711.2434043884277 1227.126480102539,701.3806114196777 1227.809585571289,687.1459922790527 1287.163345336914,696.5187950134277 1286.373062133789,711.2434043884277 " fill="#c6854f"/>
          <polygon stroke="null" class="colorc6854f svgShape" points="1292.512466430664,597.0544395446777 1232.408462524414,591.025203704834 1233.091567993164,576.7714195251465 1293.3072662353516,582.296199798584 1292.512466430664,597.0544395446777 " fill="#c6854f"/>
          <polygon stroke="null" class="colorc6854f svgShape" points="1305.635269165039,353.10619735717773 1304.835952758789,367.92687606811523 1242.995132446289,369.84853744506836 1243.678237915039,355.5514793395996 1305.635269165039,353.10619735717773 " fill="#c6854f"/>
          <polygon stroke="null" class="colorc6854f svgShape" points="1244.5177154541016,338.08849716186523 1306.657730102539,334.0770835876465 1306.072769165039,344.95837020874023 1244.0577545166016,347.6967430114746 1244.5177154541016,338.08849716186523 " fill="#c6854f"/>
          <polygon stroke="null" class="colorc6854f svgShape" points="1301.134536743164,436.7698631286621 1239.815933227539,436.265438079834 1240.4991607666016,421.98278427124023 1301.929214477539,421.96837997436523 1301.134536743164,436.7698631286621 " fill="#c6854f"/>
          <polygon stroke="null" class="colorc6854f svgShape" points="1302.366714477539,413.83019638061523 1240.8741607666016,414.132869720459 1241.561782836914,399.8454246520996 1303.161636352539,399.02395248413086 1302.366714477539,413.83019638061523 " fill="#c6854f"/>
          <polygon stroke="null" class="colorc6854f svgShape" points="1303.599136352539,390.88573837280273 1241.936782836914,391.99547958374023 1242.6200103759766,377.70324325561523 1304.3983306884766,376.06985092163086 1303.599136352539,390.88573837280273 " fill="#c6854f"/>
          <polygon stroke="null" class="colore0b080 svgShape" points="1244.0577545166016,347.6967430114746 1306.072769165039,344.95837020874023 1305.635269165039,353.10619735717773 1243.678237915039,355.5514793395996 1244.0577545166016,347.6967430114746 " fill="#e0b080"/>
          <polygon stroke="null" class="colore0b080 svgShape" points="1304.3983306884766,376.06985092163086 1242.6200103759766,377.70324325561523 1242.995132446289,369.84853744506836 1304.835952758789,367.92687606811523 1304.3983306884766,376.06985092163086 " fill="#e0b080"/>
          <polygon stroke="null" class="colore0b080 svgShape" points="1303.161636352539,399.02395248413086 1241.561782836914,399.8454246520996 1241.936782836914,391.99547958374023 1303.599136352539,390.88573837280273 1303.161636352539,399.02395248413086 " fill="#e0b080"/>
          <polygon stroke="null" class="colore0b080 svgShape" points="1301.929214477539,421.96837997436523 1240.4991607666016,421.98278427124023 1240.8741607666016,414.132869720459 1302.366714477539,413.83019638061523 1301.929214477539,421.96837997436523 " fill="#e0b080"/>
          <polygon stroke="null" class="colore0b080 svgShape" points="1300.6969146728516,444.90322494506836 1239.440933227539,444.11535263061523 1239.815933227539,436.265438079834 1301.134536743164,436.7698631286621 1300.6969146728516,444.90322494506836 " fill="#e0b080"/>
          <polygon stroke="null" class="colore0b080 svgShape" points="1299.4644927978516,467.82372665405273 1238.3827056884766,466.238338470459 1238.7577056884766,458.39318466186523 1299.8975982666016,459.6998863220215 1299.4644927978516,467.82372665405273 " fill="#e0b080"/>
          <polygon stroke="null" class="colore0b080 svgShape" points="1298.2320709228516,490.73937606811523 1237.324478149414,488.35644149780273 1237.6996002197266,480.516170501709 1298.665298461914,482.615535736084 1298.2320709228516,490.73937606811523 " fill="#e0b080"/>
          <polygon stroke="null" class="colore0b080 svgShape" points="1296.999771118164,513.645320892334 1236.266372680664,510.469783782959 1236.641372680664,502.62951278686523 1297.437271118164,505.52160263061523 1296.999771118164,513.645320892334 " fill="#e0b080"/>
          <polygon stroke="null" class="colore0b080 svgShape" points="1295.7674713134766,536.536922454834 1235.208023071289,532.5783653259277 1235.5831451416016,524.7380332946777 1296.205093383789,528.4227867126465 1295.7674713134766,536.536922454834 " fill="#e0b080"/>
          <polygon stroke="null" class="colore0b080 svgShape" points="1294.535171508789,559.4237632751465 1234.149917602539,554.677303314209 1234.524917602539,546.8417930603027 1294.972671508789,551.309627532959 1294.535171508789,559.4237632751465 " fill="#e0b080"/>
          <polygon stroke="null" class="colore0b080 svgShape" points="1293.3072662353516,582.296199798584 1233.091567993164,576.7714195251465 1233.4666900634766,568.9359092712402 1293.744888305664,574.186824798584 1293.3072662353516,582.296199798584 " fill="#e0b080"/>
          <polygon stroke="null" class="colore0b080 svgShape" points="1292.0748443603516,605.1589317321777 1232.033462524414,598.8607139587402 1232.408462524414,591.025203704834 1292.512466430664,597.0544395446777 1292.0748443603516,605.1589317321777 " fill="#e0b080"/>
          <polygon stroke="null" class="colore0b080 svgShape" points="1290.846939086914,628.016902923584 1230.9752349853516,620.940486907959 1231.3502349853516,613.1097373962402 1291.2845611572266,619.912410736084 1290.846939086914,628.016902923584 " fill="#e0b080"/>
          <polygon stroke="null" class="colore0b080 svgShape" points="1289.619155883789,650.8605918884277 1229.921401977539,643.0153770446777 1230.292007446289,635.1895713806152 1290.056655883789,642.7607383728027 1289.619155883789,650.8605918884277 " fill="#e0b080"/>
          <polygon stroke="null" class="colore0b080 svgShape" points="1288.391128540039,673.6944541931152 1228.863296508789,665.0854454040527 1229.238296508789,657.2596397399902 1288.8243560791016,665.5995445251465 1288.391128540039,673.6944541931152 " fill="#e0b080"/>
          <polygon stroke="null" class="colore0b080 svgShape" points="1287.163345336914,696.5187950134277 1227.809585571289,687.1459922790527 1228.1800689697266,679.3249473571777 1287.600845336914,688.4238243103027 1287.163345336914,696.5187950134277 " fill="#e0b080"/>
          <polygon stroke="null" class="colore0b080 svgShape" points="1285.9354400634766,719.3336143493652 1226.7513580322266,709.2016563415527 1227.126480102539,701.3806114196777 1286.373062133789,711.2434043884277 1285.9354400634766,719.3336143493652 " fill="#e0b080"/>
          <polygon stroke="null" class="colore0b080 svgShape" points="1284.7120513916016,742.138729095459 1225.697525024414,731.2525596618652 1226.0726470947266,723.436336517334 1285.1451568603516,734.0534019470215 1284.7120513916016,742.138729095459 " fill="#e0b080"/>
          <polygon stroke="null" class="colore0b080 svgShape" points="1283.4840240478516,764.9294395446777 1224.6392974853516,753.298641204834 1225.014419555664,745.4824180603027 1283.9171295166016,756.8489952087402 1283.4840240478516,764.9294395446777 " fill="#e0b080"/>
          <polygon stroke="null" class="colore0b080 svgShape" points="1282.2562408447266,787.715389251709 1223.5855865478516,775.3351402282715 1223.960708618164,767.518856048584 1282.6937408447266,779.6396446228027 1282.2562408447266,787.715389251709 " fill="#e0b080"/>
          <polygon stroke="null" class="colorf7d8bf svgShape" points="1313.078384399414,323.8058738708496 1322.8524322509766,327.21679306030273 1296.646987915039,804.3088340759277 1288.132339477539,807.9022178649902 1313.078384399414,323.8058738708496 " fill="#f7d8bf"/>
          <polygon stroke="null" class="color514135 svgShape" points="1229.1131744384766,369.392147064209 1234.7035064697266,369.84853744506836 1232.1361236572266,420.03713607788086 1227.1353912353516,420.03713607788086 1229.1131744384766,369.392147064209 " fill="#514135"/>
          <polygon stroke="null" class="colore0b080 svgShape" points="1072.921646118164,431.6870994567871 1226.7513580322266,437.682674407959 1225.871597290039,452.36400985717773 1073.126968383789,444.90322494506836 1072.921646118164,431.6870994567871 " fill="#e0b080"/>
          <polygon stroke="null" class="colore0b080 svgShape" points="1075.0826568603516,570.9584312438965 1220.8172760009766,581.8398399353027 1220.8172760009766,588.7432823181152 1075.212173461914,585.572566986084 1075.0826568603516,570.9584312438965 " fill="#e0b080"/>
          <polygon stroke="null" class="colore0b080 svgShape" points="1076.8106842041016,682.0919761657715 1217.6158599853516,691.585018157959 1216.2315826416016,699.194637298584 1077.127700805664,692.8868980407715 1076.8106842041016,682.0919761657715 " fill="#e0b080"/>
          <polygon stroke="null" class="colorfce647 svgShape" points="1088.3617095947266,708.7308311462402 1194.781509399414,712.7806968688965 1186.6685943603516,794.7293663024902 1094.648452758789,794.7293663024902 1088.3617095947266,708.7308311462402 " fill="#fce647"/>
          <path stroke="null" class="colorc6854f svgShape" d="m1122.80951,718.39196l37.66711,1.8688s-1.277,8.60417 -16.57424,9.72834s-21.78941,-5.11158 -21.09287,-11.59714z" fill="#c6854f"/>
          <polygon stroke="null" class="colore2c72d svgShape" points="1194.781509399414,712.7806968688965 1215.8162994384766,712.7806968688965 1212.4989166259766,794.7293663024902 1186.6685943603516,794.7293663024902 1194.781509399414,712.7806968688965 " fill="#e2c72d"/>
          <polygon stroke="null" class="color514135 svgShape" points="1216.0440826416016,704.0468711853027 1217.6158599853516,704.0468711853027 1215.2850494384766,749.6859703063965 1213.0033111572266,748.696346282959 1213.0033111572266,704.0468711853027 1216.0440826416016,704.0468711853027 " fill="#514135"/>
          <path stroke="null" class="colora7ddea svgShape" d="m1090.82193,432.38371s-5.73758,-12.04872 -1.40202,-17.45816s67.62309,0 93.69895,2.4453s27.64309,4.86177 27.64309,10.47297s-1.23235,9.16625 -1.23235,9.16625l-118.70766,-4.62636z" fill="#a7ddea"/>
          <path stroke="null" class="colorbbeaf2 svgShape" d="m1102.66323,412.60516s-10.79648,-14.41235 -3.61222,-21.71941s108.94707,3.04101 115.64464,11.208s12.50212,20.23494 -19.00769,17.94337s-93.02472,-7.43197 -93.02472,-7.43197z" fill="#bbeaf2"/>
          <path stroke="null" class="color8ec1dd svgShape" d="m1088.65638,682.80787s-5.73758,-12.04872 -1.38863,-17.45816s67.62309,0 93.70341,2.4453s27.63862,4.86177 27.63862,10.47297s-3.04069,12.4907 -3.04069,12.4907l-116.91271,-7.95081z" fill="#8ec1dd"/>
          <path stroke="null" class="color678fc9 svgShape" d="m1100.49768,663.02933s-10.79648,-14.41235 -3.61222,-21.71941s108.94707,3.04101 115.64464,11.208s12.50212,20.23494 -19.00769,17.94337s-93.02472,-7.43197 -93.02472,-7.43197z" fill="#678fc9"/>
          <path stroke="null" class="colorfce647 svgShape" d="m1084.69143,571.67906l119.1497,8.89242s21.99927,-15.09934 2.06732,-16.14183s-114.48373,-6.02436 -121.21701,-4.03065s-3.24609,11.03505 0,11.28006z" fill="#fce647"/>
          <path stroke="null" class="colorfff svgShape" d="m1098.81882,561.40305s-15.81965,-4.49185 -12.68965,-10.84769s11.64483,-8.30632 35.46584,-7.2398s74.56623,3.08905 84.6617,8.90683s6.6038,12.66845 -8.69344,13.63408s-98.74445,-4.45342 -98.74445,-4.45342z" fill="#ffffff"/>
          <path stroke="null" class="colorf2542a svgShape" d="m1108.09272,543.51733s78.91519,3.59828 86.98352,5.50071s14.07828,-18.54389 3.64794,-23.05976s-78.11594,-1.74389 -90.64039,0.99926s-13.49336,16.76156 0.00893,16.55979z" fill="#f2542a"/>
          <path stroke="null" class="colorfff svgShape" d="m1114.11606,388.40203l-5.90725,15.95927s19.92749,-2.73835 39.3415,-5.33737s60.7246,0 60.7246,0s16.07416,-8.64741 -12.80128,-12.16402s-79.03128,-4.73205 -81.35756,1.54212z" fill="#ffffff"/>
          <path stroke="null" class="colored8e5f svgShape" d="m921.53426,574.72967s19.84266,7.72982 48.12871,2.74315s37.60013,-13.95596 37.60013,-13.95596l5.00085,6.08201s-9.9124,25.10151 -46.34716,33.59999s-53.75913,2.20509 -53.75913,2.20509l9.37659,-30.67428z" fill="#ed8e5f"/>
          <path stroke="null" class="colorbbeaf2 svgShape" d="m912.43003,573.37971s4.01854,-1.10975 9.8231,0s20.42311,3.72799 25.29001,3.72799c-0.52241,9.72834 1.7369,31.42372 1.7369,31.42372s-24.2943,3.36288 -37.52869,0.74944s-12.91737,-28.04163 0.67869,-35.90116z" fill="#bbeaf2"/>
          <path stroke="null" class="colored8e5f svgShape" d="m1007.2631,563.51686s4.97852,-6.4231 12.45301,-3.80486s13.73447,12.34658 10.77862,14.77746s-17.47172,0.05765 -20.7312,-3.52622s-2.50042,-7.44638 -2.50042,-7.44638z" fill="#ed8e5f"/>
          <path stroke="null" class="colorfdb082 svgShape" d="m910.55918,795.97844s-2.08964,8.97409 -1.9155,11.68841s0.69655,4.20841 4.60793,4.3237s9.37659,-0.73503 9.37659,-0.73503l2.34415,-12.16883a4.70169,5.05873 0 0 1 -1.8262,-3.84329c0.0134,-2.4453 -12.58696,0.73503 -12.58696,0.73503z" fill="#fdb082"/>
          <path stroke="null" class="color76b2cc svgShape" d="m942.02434,814.85381l-33.29137,0s-1.91104,-3.6175 1.21449,-3.6175s26.34376,0.18736 29.9917,0s5.56344,3.6175 2.08518,3.6175z" fill="#76b2cc"/>
          <path stroke="null" class="color76b2cc svgShape" d="m943.7925,813.86416s0.66529,-10.98221 -8.7247,-13.72536s-9.99277,-1.99371 -9.99277,-1.99371s-4.05426,1.66222 -5.44735,7.81149s-1.04482,7.08607 -1.04482,7.08607l25.20964,0.8215z" fill="#76b2cc"/>
          <path stroke="null" class="color8ec1dd svgShape" d="m945.03825,675.16452l-15.18115,119.78583s-13.43978,5.23649 -26.41966,0c-1.39309,-13.45153 -3.94263,-57.4188 -8.11298,-58.7015s-15.52942,58.7015 -15.52942,58.7015s-4.69276,2.92571 -12.50212,2.74315s-11.60911,-4.24203 -11.60911,-4.24203l-6.25106,-116.25961l95.60552,-2.02734z" fill="#8ec1dd"/>
          <path stroke="null" class="coloraed9ed svgShape" d="m929.53115,795.81029s-4.58114,1.95047 -13.22099,1.88802s-12.7611,-1.44123 -13.35048,-1.88802s-1.43774,-8.97889 -0.85282,-9.08458s6.04567,1.22025 14.90432,0.89357c8.64879,-0.32188 13.10937,-1.79194 13.95326,-1.36917s-0.37953,9.19508 -1.43328,9.56019z" fill="#aed9ed"/>
          <path stroke="null" class="colorfdb082 svgShape" d="m861.99736,795.97844s-2.08071,8.99331 -1.91104,11.68841s0.69208,4.20841 4.60346,4.3237s9.37659,-0.73503 9.37659,-0.73503l2.37094,-12.19285a4.70169,5.05873 0 0 1 -1.8262,-3.84329c-0.00893,-2.42127 -12.61375,0.75905 -12.61375,0.75905z" fill="#fdb082"/>
          <path stroke="null" class="color76b2cc svgShape" d="m893.46253,814.85381l-33.29137,0s-1.91104,-3.63672 1.21896,-3.63672s26.34376,0.18736 29.98723,0s5.56344,3.63672 2.08518,3.63672z" fill="#76b2cc"/>
          <path stroke="null" class="color76b2cc svgShape" d="m895.23515,813.86416s0.66083,-10.98221 -8.7247,-13.72536s-9.99723,-1.99371 -9.99723,-1.99371s-4.05426,1.66222 -5.44735,7.81149s-1.04036,7.08607 -1.04036,7.08607l25.20964,0.8215z" fill="#76b2cc"/>
          <path stroke="null" class="coloraed9ed svgShape" d="m880.5898,795.81029s-4.34449,1.95047 -12.53784,1.88802s-12.10027,-1.44123 -12.6584,-1.88802s-1.3663,-8.97889 -0.80817,-9.08458s5.73312,1.22025 14.1274,0.89357c8.20229,-0.32188 12.43515,-1.79194 13.23439,-1.36917s-0.36167,9.19508 -1.35737,9.56019z" fill="#aed9ed"/>
          <path stroke="null" class="color76b2cc svgShape" d="m941.01971,706.89091s-15.02041,3.57426 -45.77563,3.01218s-44.65044,-11.04947 -44.65044,-11.04947l0,-3.12268l91.92632,0l-1.50025,11.15996z" fill="#76b2cc"/>
          <path stroke="null" class="colora7ddea svgShape" d="m947.58779,692.70435s-13.9354,11.59714 -51.54893,11.59714s-50.15137,-11.59714 -50.15137,-11.59714l44.99425,-6.33183s47.86081,-0.27864 56.70606,6.33183z" fill="#a7ddea"/>
          <path stroke="null" class="colora7ddea svgShape" d="m884.89411,570.95844s-12.46194,0.91278 -21.43221,12.4907s-17.57441,109.25521 -17.57441,109.25521l51.348,0l0,-121.74591l-12.34138,0z" fill="#a7ddea"/>
          <path stroke="null" class="colora7ddea svgShape" d="m909.57687,570.95844s12.4664,0.91278 21.43221,12.4907s16.57424,109.23599 16.57424,109.23599l-50.3523,2.63266l0,-124.35935l12.34585,0z" fill="#a7ddea"/>
          <path stroke="null" class="colorfdb082 svgShape" d="m890.50667,421.60327l5.51433,134.23661s48.02155,-0.10569 53.04026,-47.35417c5.57237,-52.49458 -10.96615,-89.14518 -58.55459,-86.88244z" fill="#fdb082"/>
          <path stroke="null" class="colorfdb082 svgShape" d="m949.82478,499.14651s5.19731,-7.40314 11.89488,-3.62711c9.67129,5.43346 1.43328,27.08561 -7.86741,25.46182s-7.31374,-6.13486 -7.31374,-6.13486l3.28627,-15.69985z" fill="#fdb082"/>
          <path stroke="null" class="colored8e5f svgShape" d="m963.68427,508.94691s2.30843,-9.12782 -3.57204,-10.69396s-10.0017,9.94932 -9.04618,12.22648s2.85763,-1.17701 4.65704,0.7014s-2.05839,4.49185 0.74566,4.93383s5.35805,-5.33737 2.67903,-7.86914s-2.54061,-4.38616 -0.89301,-6.31261s6.17962,0.78307 5.42949,7.01401zm-66.23,-6.9996s3.00051,2.4549 3.04069,5.39983s-1.91104,4.42459 -5.06336,4.22762c3.85333,1.6382 9.47482,-0.79748 7.59057,-5.55836s-5.56791,-4.06909 -5.56791,-4.06909z" fill="#ed8e5f"/>
          <path stroke="null" class="colora86340 svgShape" d="m933.72383,483.04792s-3.96942,-4.14595 -8.11298,-5.68327s-5.58577,-0.68699 -6.66185,-1.15299s-2.17894,-3.6223 4.12124,-2.53657s10.65359,9.37283 10.65359,9.37283z" fill="#a86340"/>
          <path stroke="null" class="colorfdb082 svgShape" d="m890.50667,421.60327l5.51433,134.23661s-47.84295,4.45822 -56.70606,-42.1321c-9.86775,-51.74994 3.59883,-89.83697 51.19173,-92.10451z" fill="#fdb082"/>
          <path stroke="null" class="colorfdb082 svgShape" d="m837.7745,504.47908s-5.7733,-6.8843 -12.16278,-2.48373c-9.18906,6.32702 0.8171,27.11443 9.92579,24.60188s6.80919,-6.79782 6.80919,-6.79782l-4.5722,-15.32033z" fill="#fdb082"/>
          <path stroke="null" class="colored8e5f svgShape" d="m824.77676,515.55257s-3.04962,-8.8684 2.67903,-10.98701s10.80541,8.95968 10.03295,11.30889s-2.94693,-0.90317 -4.58114,1.13858s2.42005,4.27566 -0.33934,4.98667s-5.7733,-4.80412 -3.31306,-7.5857s2.17448,-4.60715 0.38399,-6.37026s-6.12604,1.37878 -4.86243,7.50883z" fill="#ed8e5f"/>
          <path stroke="null" class="colora86340 svgShape" d="m852.49575,486.91043s3.61222,-4.50626 7.6129,-6.42791s5.50986,-1.21544 6.54129,-1.78233s1.87532,-3.84329 -4.31323,-2.13783s-9.84096,10.34807 -9.84096,10.34807z" fill="#a86340"/>
          <path stroke="null" class="color110f0e svgShape" d="m918.05599,495.37048a6.17069,6.63929 0 1 1 6.43859,6.34143a6.17069,6.63929 0 0 1 -6.43859,-6.34143z" fill="#110f0e"/>
          <path stroke="null" class="color110f0e svgShape" d="m934.75525,495.53382s-3.62115,-6.6489 -11.24745,-6.02436a12.43068,13.37466 0 0 0 -10.32765,7.42236s2.14322,-9.25273 10.42141,-9.64186s11.15368,8.24386 11.15368,8.24386zm-74.91451,2.60864a6.16623,6.63448 0 1 1 6.43413,6.33663a6.17069,6.63929 0 0 1 -6.43413,-6.33663z" fill="#110f0e"/>
          <path stroke="null" class="color110f0e svgShape" d="m876.54001,498.30579s-3.62115,-6.6489 -11.26531,-6.02917a12.43961,13.38427 0 0 0 -10.32765,7.42716s2.14322,-9.25273 10.41695,-9.64667s11.176,8.24867 11.176,8.24867z" fill="#110f0e"/>
          <path stroke="null" class="colorfc9977 svgShape" d="m856.98758,518.06512a9.8231,10.56906 0 1 1 10.2696,10.08864a9.8231,10.56906 0 0 1 -10.2696,-10.08864zm58.88946,-2.78158a9.8231,10.56906 0 1 1 10.2696,10.08864a9.8231,10.56906 0 0 1 -10.2696,-10.08864z" fill="#fc9977"/>
          <path stroke="null" class="colora86340 svgShape" d="m918.35515,443.38994s-1.33951,16.33399 -16.71712,21.5945s-14.89539,-6.91793 -14.89539,-6.91793s-5.75098,10.32405 -19.68191,11.33771s-15.48031,-5.15962 -15.48031,-5.15962s-5.61256,8.58976 -8.57288,18.95704s-0.13395,28.05123 -1.48686,26.48509s-6.84491,-8.76751 -11.2787,-9.15665c-4.56327,-15.2915 -8.19782,-65.64825 27.07603,-81.96783c45.93637,-21.24861 64.61812,4.5543 64.61812,4.5543s16.44922,-1.92165 27.57611,23.18466s4.78206,49.05483 4.78206,49.05483l-6.63059,5.2509s-2.78172,-15.37317 -8.67112,-28.03682c-9.18906,-19.78815 -20.63743,-29.1802 -20.63743,-29.1802z" fill="#a86340"/>
          <path stroke="null" class="colorfdb082 svgShape" d="m895.90044,552.87575l1.00463,24.44815s8.58181,-0.29305 12.05562,-7.04283c-0.69655,-6.43752 -1.60295,-11.73646 -0.04912,-14.21058s5.0321,-3.52142 5.0321,-3.52142s-7.07709,-2.28196 -18.04324,0.32668z" fill="#fdb082"/>
          <path stroke="null" class="colorfdb082 svgShape" d="m895.90044,552.87575l1.00463,24.44815s-8.57735,0.52365 -12.59589,-5.87063c0.16074,-6.48075 0.63404,-11.84215 -1.12073,-14.15773s-5.29554,-3.0314 -5.29554,-3.0314s6.86724,-2.94973 18.00752,-1.38839z" fill="#fdb082"/>
          <path stroke="null" class="colora5361c svgShape" d="m883.92073,517.42617a2.83084,3.04581 0 0 1 2.01373,-0.38433c0.18753,1.37878 0.86622,4.68882 3.26841,6.2982c3.07195,2.05136 6.80026,1.72468 7.75578,1.73429s1.60742,-4.10752 1.60742,-4.10752s1.01803,2.74795 1.65653,3.54063s2.67903,0.68218 6.21981,-1.22505s3.08981,-6.13005 3.08981,-6.13005c1.08501,-0.73503 2.50489,-1.1626 2.55401,1.18181c0.05805,2.81041 -3.59883,16.99696 -14.79269,15.26748s-15.80179,-14.36911 -13.37281,-16.17546z" fill="#a5361c"/>
          <path stroke="null" class="colorfff svgShape" d="m906.44241,523.28239c-3.57204,1.92165 -5.5813,2.02253 -6.21981,1.22505s-1.65653,-3.54063 -1.65653,-3.54063s-0.64743,4.12193 -1.60742,4.10752s-4.68383,0.31707 -7.75578,-1.73429c-2.40219,-1.60938 -3.08088,-4.91941 -3.26841,-6.2982c2.59866,0.33629 6.39394,2.82482 11.35461,2.83923a33.55927,36.10774 0 0 0 11.60911,-2.28196a6.84045,7.35991 0 0 1 0.60725,-0.44678s0.48669,4.21801 -3.06302,6.13005z" fill="#ffffff"/>
          <path stroke="null" class="colorfce647 svgShape" d="m977.9099,574.70565s8.06833,4.42459 19.12378,1.92165s19.46759,-10.6171 19.46759,-10.6171l38.24757,35.79067l-10.42588,22.81955l-13.09151,-7.85953l3.00944,47.51271l-70.10119,2.99296l1.94229,-42.64614l-9.97937,5.90906l-13.58266,-22.86759l21.61974,-29.66542l13.7702,-3.29082z" fill="#fce647"/>
          <path stroke="null" class="colorfdb082 svgShape" d="m875.89704,581.09993s19.84266,7.72982 48.12871,2.74315s37.60906,-13.95596 37.60906,-13.95596l4.99638,6.0724s-9.92133,25.10151 -46.3293,33.58077s-53.75466,2.22431 -53.75466,2.22431l9.3498,-30.66467z" fill="#fdb082"/>
          <path stroke="null" class="colorbbeaf2 svgShape" d="m866.81514,579.74036s4.01854,-1.10975 9.8231,0s20.41865,3.72799 25.28554,3.72799c-0.51795,9.72834 1.74137,31.42372 1.74137,31.42372s-24.29877,3.36288 -37.50637,0.74944s-12.9397,-28.04163 0.65636,-35.90116z" fill="#bbeaf2"/>
          <path stroke="null" class="colorfdb082 svgShape" d="m961.63482,569.87751s4.97406,-6.4231 12.44854,-3.80486s13.73447,12.34658 10.77862,14.77746s-17.47172,0.05285 -20.7312,-3.52622s-2.49596,-7.44638 -2.49596,-7.44638z" fill="#fdb082"/>
        </g>
      </g>
    </g>
  </g>
</svg>